<svg width="142"
    height="136"
    viewBox="0 0 142 136"
    fill="none"
    xmlns="http://www.w3.org/2000/svg">
    <g clip-path="url(#clip0_1_3993)">
        <path d="M138.687 76.5832C134.635 88.8753 125.903 102.345 113.051 106.733C93.6352 113.36 91.8991 129.295 56.6605 129.187C51.1668 129.172 46.0666 128.595 41.3599 127.543C38.8309 126.978 36.4129 126.271 34.1152 125.439C13.2459 117.901 1.81403 99.9832 0.183053 80.8359C-1.96455 55.6537 15.1622 42.9469 26.3237 35.4635C37.4852 27.98 50.2117 0.165131 84.8556 -0.000165587C90.136 -0.0242087 95.4284 0.495724 100.583 1.67985C112.345 4.3817 124.45 10.8974 131.718 20.8242C132.265 21.5695 132.788 22.3359 133.289 23.1143C143.096 38.3847 144.214 59.8252 138.687 76.5832Z"
            fill="#FFEBEF"/>
        <path d="M4.88092 130.918H138.705"
            stroke="#263238"
            stroke-miterlimit="10"
            stroke-linecap="round"
            stroke-linejoin="round"/>
        <path d="M24.8311 41.0537C24.8311 43.3317 23.7648 45.3634 22.1008 46.6707C20.8903 47.6295 19.3554 48.1975 17.6914 48.1975C16.0244 48.1975 14.4895 47.6264 13.2791 46.6707C11.6121 45.3664 10.5488 43.3347 10.5488 41.0537C10.5488 37.1046 13.7446 33.9068 17.6914 33.9068C21.6352 33.9038 24.8311 37.1046 24.8311 41.0537Z"
            stroke="#263238"
            stroke-miterlimit="10"
            stroke-linecap="round"
            stroke-linejoin="round"/>
        <path d="M19.2561 42.4744C20.6574 41.608 21.0914 39.7689 20.2255 38.3668C19.3595 36.9646 17.5215 36.5304 16.1202 37.3969C14.7189 38.2633 14.2849 40.1024 15.1508 41.5045C16.0168 42.9067 17.8548 43.3409 19.2561 42.4744Z"
            stroke="#263238"
            stroke-miterlimit="10"
            stroke-linecap="round"
            stroke-linejoin="round"/>
        <path d="M22.1007 46.6677C20.8903 47.6264 19.3554 48.1945 17.6914 48.1945C16.0244 48.1945 14.4895 47.6234 13.2791 46.6677C13.7206 44.6391 15.5288 43.1183 17.6914 43.1183C19.848 43.1183 21.6562 44.6391 22.1007 46.6677Z"
            stroke="#263238"
            stroke-miterlimit="10"
            stroke-linecap="round"
            stroke-linejoin="round"/>
        <path d="M135.29 114.881C135.29 117.159 134.224 119.191 132.56 120.498C131.349 121.457 129.814 122.025 128.15 122.025C126.483 122.025 124.948 121.454 123.738 120.498C122.071 119.194 121.008 117.162 121.008 114.881C121.008 110.932 124.203 107.734 128.15 107.734C132.091 107.731 135.29 110.929 135.29 114.881Z"
            stroke="#263238"
            stroke-miterlimit="10"
            stroke-linecap="round"
            stroke-linejoin="round"/>
        <path d="M128.628 116.702C130.254 116.437 131.357 114.904 131.093 113.277C130.828 111.65 129.295 110.546 127.669 110.811C126.044 111.076 124.94 112.61 125.205 114.236C125.47 115.863 127.002 116.967 128.628 116.702Z"
            stroke="#263238"
            stroke-miterlimit="10"
            stroke-linecap="round"
            stroke-linejoin="round"/>
        <path d="M132.557 120.495C131.346 121.454 129.811 122.022 128.147 122.022C126.48 122.022 124.945 121.451 123.735 120.495C124.176 118.467 125.985 116.946 128.147 116.946C130.307 116.946 132.115 118.467 132.557 120.495Z"
            stroke="#263238"
            stroke-miterlimit="10"
            stroke-linecap="round"
            stroke-linejoin="round"/>
        <path d="M8.3381 56.3511L7.97466 56.1317L8.42821 55.4946L7.74939 55.2361L7.89957 54.8454L8.54836 55.191L8.47927 54.3976H8.94484L8.86975 55.191L9.52454 54.8454L9.66871 55.2361L8.98989 55.5006L9.44945 56.1317L9.077 56.3511L8.70755 55.6328L8.3381 56.3511Z"
            fill="#263238"/>
        <path d="M10.6269 56.3511L10.2634 56.1317L10.717 55.4946L10.0381 55.2361L10.1883 54.8454L10.8371 55.191L10.768 54.3976H11.2336L11.1585 55.191L11.8133 54.8454L11.9575 55.2361L11.2786 55.5006L11.7382 56.1317L11.3658 56.3511L10.9963 55.6328L10.6269 56.3511Z"
            fill="#263238"/>
        <path d="M12.9157 56.3511L12.5522 56.1317L13.0058 55.4946L12.327 55.2361L12.4771 54.8454L13.1259 55.191L13.0568 54.3976H13.5224L13.4473 55.191L14.1021 54.8454L14.2463 55.2361L13.5675 55.5006L14.027 56.1317L13.6546 56.3511L13.2851 55.6328L12.9157 56.3511Z"
            fill="#263238"/>
        <path d="M15.2044 56.3511L14.841 56.1317L15.2945 55.4946L14.6157 55.2361L14.7659 54.8454L15.4147 55.191L15.3456 54.3976H15.8112L15.7361 55.191L16.3909 54.8454L16.535 55.2361L15.8562 55.5006L16.3158 56.1317L15.9433 56.3511L15.5739 55.6328L15.2044 56.3511Z"
            fill="#263238"/>
        <path d="M17.4932 56.3511L17.1298 56.1317L17.5833 55.4946L16.9045 55.2361L17.0547 54.8454L17.7034 55.191L17.6344 54.3976H18.0999L18.0248 55.191L18.6796 54.8454L18.8238 55.2361L18.145 55.5006L18.6045 56.1317L18.2321 56.3511L17.8626 55.6328L17.4932 56.3511Z"
            fill="#263238"/>
        <path d="M19.782 56.3511L19.4185 56.1317L19.8721 55.4946L19.1932 55.2361L19.3434 54.8454L19.9922 55.191L19.9231 54.3976H20.3887L20.3136 55.191L20.9684 54.8454L21.1126 55.2361L20.4337 55.5006L20.8933 56.1317L20.5208 56.3511L20.1514 55.6328L19.782 56.3511Z"
            fill="#263238"/>
        <path d="M22.0677 56.3511L21.7043 56.1317L22.1578 55.4946L21.479 55.2361L21.6292 54.8454L22.278 55.191L22.2089 54.3976H22.6745L22.5994 55.191L23.2542 54.8454L23.3983 55.2361L22.7195 55.5006L23.1791 56.1317L22.8066 56.3511L22.4372 55.6328L22.0677 56.3511Z"
            fill="#263238"/>
        <path d="M24.3565 56.3511L23.9931 56.1317L24.4466 55.4946L23.7678 55.2361L23.918 54.8454L24.5668 55.191L24.4977 54.3976H24.9633L24.8882 55.191L25.543 54.8454L25.6871 55.2361L25.0083 55.5006L25.4679 56.1317L25.0954 56.3511L24.726 55.6328L24.3565 56.3511Z"
            fill="#263238"/>
        <path d="M26.6453 56.3511L26.2819 56.1317L26.7354 55.4946L26.0566 55.2361L26.2068 54.8454L26.8555 55.191L26.7865 54.3976H27.252L27.1769 55.191L27.8317 54.8454L27.9759 55.2361L27.2971 55.5006L27.7566 56.1317L27.3842 56.3511L27.0147 55.6328L26.6453 56.3511Z"
            fill="#263238"/>
        <path d="M47.082 7.37222L46.7186 7.15283L47.1721 6.51568L46.4933 6.25722L46.6435 5.86652L47.2923 6.21214L47.2232 5.41872H47.6887L47.6136 6.21214L48.2684 5.86652L48.4126 6.25722L47.7338 6.5217L48.1933 7.15283L47.8209 7.37222L47.4514 6.65393L47.082 7.37222Z"
            fill="#263238"/>
        <path d="M49.3708 7.37222L49.0073 7.15283L49.4609 6.51568L48.782 6.25722L48.9322 5.86652L49.581 6.21214L49.5119 5.41872H49.9775L49.9024 6.21214L50.5572 5.86652L50.7014 6.25722L50.0225 6.5217L50.4821 7.15283L50.1097 7.37222L49.7402 6.65393L49.3708 7.37222Z"
            fill="#263238"/>
        <path d="M51.6596 7.37222L51.2961 7.15283L51.7497 6.51568L51.0709 6.25722L51.221 5.86652L51.8698 6.21214L51.8007 5.41872H52.2663L52.1912 6.21214L52.846 5.86652L52.9902 6.25722L52.3114 6.5217L52.7709 7.15283L52.3985 7.37222L52.029 6.65393L51.6596 7.37222Z"
            fill="#263238"/>
        <path d="M53.9453 7.37222L53.5819 7.15283L54.0354 6.51568L53.3566 6.25722L53.5068 5.86652L54.1556 6.21214L54.0865 5.41872H54.5521L54.477 6.21214L55.1318 5.86652L55.276 6.25722L54.5971 6.5217L55.0567 7.15283L54.6842 7.37222L54.3148 6.65393L53.9453 7.37222Z"
            fill="#263238"/>
        <path d="M56.2341 7.37222L55.8707 7.15283L56.3242 6.51568L55.6454 6.25722L55.7956 5.86652L56.4444 6.21214L56.3753 5.41872H56.8408L56.7687 6.20913L57.4235 5.86351L57.5677 6.25422L56.8889 6.51869L57.3484 7.14982L56.976 7.36922L56.6066 6.65093L56.2341 7.37222Z"
            fill="#263238"/>
        <path d="M58.5229 7.37222L58.1594 7.15283L58.613 6.51568L57.9341 6.25722L58.0843 5.86652L58.7331 6.21214L58.664 5.41872H59.1296L59.0545 6.21214L59.7093 5.86652L59.8535 6.25722L59.1746 6.5217L59.6342 7.15283L59.2618 7.37222L58.8923 6.65393L58.5229 7.37222Z"
            fill="#263238"/>
        <path d="M60.8116 7.37222L60.4482 7.15283L60.9017 6.51568L60.2229 6.25722L60.3731 5.86652L61.0219 6.21214L60.9528 5.41872H61.4183L61.3433 6.21214L61.9981 5.86652L62.1422 6.25722L61.4634 6.5217L61.923 7.15283L61.5505 7.37222L61.1811 6.65393L60.8116 7.37222Z"
            fill="#263238"/>
        <path d="M63.1004 7.37222L62.737 7.15283L63.1905 6.51568L62.5117 6.25722L62.6619 5.86652L63.3107 6.21214L63.2416 5.41872H63.7072L63.6321 6.21214L64.2869 5.86652L64.431 6.25722L63.7522 6.5217L64.2118 7.15283L63.8393 7.37222L63.4699 6.65393L63.1004 7.37222Z"
            fill="#263238"/>
        <path d="M65.3892 7.37222L65.0257 7.15283L65.4793 6.51568L64.8005 6.25722L64.9507 5.86652L65.5994 6.21214L65.5304 5.41872H65.9959L65.9208 6.21214L66.5756 5.86652L66.7198 6.25722L66.041 6.5217L66.5005 7.15283L66.1281 7.37222L65.7586 6.65393L65.3892 7.37222Z"
            fill="#263238"/>
        <path d="M117.076 37.4171L116.712 37.1977L117.166 36.5606L116.487 36.3021L116.637 35.9114L117.286 36.257L117.217 35.4636H117.683L117.607 36.257L118.262 35.9114L118.406 36.3021L117.728 36.5666L118.187 37.1977L117.815 37.4171L117.445 36.6988L117.076 37.4171Z"
            fill="#263238"/>
        <path d="M119.365 37.4171L119.001 37.1977L119.455 36.5606L118.776 36.3021L118.926 35.9114L119.575 36.257L119.506 35.4636H119.971L119.896 36.257L120.551 35.9114L120.695 36.3021L120.016 36.5666L120.476 37.1977L120.103 37.4171L119.734 36.6988L119.365 37.4171Z"
            fill="#263238"/>
        <path d="M121.65 37.4171L121.287 37.1977L121.74 36.5606L121.062 36.3021L121.212 35.9114L121.861 36.257L121.792 35.4636H122.257L122.182 36.257L122.837 35.9114L122.981 36.3021L122.302 36.5666L122.762 37.1977L122.389 37.4171L122.02 36.6988L121.65 37.4171Z"
            fill="#263238"/>
        <path d="M123.939 37.4171L123.576 37.1977L124.029 36.5606L123.35 36.3021L123.501 35.9114L124.149 36.257L124.08 35.4636H124.546L124.471 36.257L125.126 35.9114L125.27 36.3021L124.591 36.5666L125.05 37.1977L124.678 37.4171L124.309 36.6988L123.939 37.4171Z"
            fill="#263238"/>
        <path d="M126.228 37.4171L125.864 37.1977L126.318 36.5606L125.639 36.3021L125.789 35.9114L126.438 36.257L126.369 35.4636H126.835L126.76 36.257L127.414 35.9114L127.559 36.3021L126.88 36.5666L127.339 37.1977L126.967 37.4171L126.597 36.6988L126.228 37.4171Z"
            fill="#263238"/>
        <path d="M128.517 37.4171L128.153 37.1977L128.607 36.5606L127.928 36.3021L128.078 35.9114L128.727 36.257L128.658 35.4636H129.123L129.048 36.257L129.703 35.9114L129.847 36.3021L129.168 36.5666L129.628 37.1977L129.256 37.4171L128.886 36.6988L128.517 37.4171Z"
            fill="#263238"/>
        <path d="M130.805 37.4171L130.442 37.1977L130.896 36.5606L130.217 36.3021L130.367 35.9114L131.016 36.257L130.947 35.4636H131.412L131.337 36.257L131.992 35.9114L132.136 36.3021L131.457 36.5666L131.917 37.1977L131.544 37.4171L131.175 36.6988L130.805 37.4171Z"
            fill="#263238"/>
        <path d="M133.094 37.4171L132.731 37.1977L133.184 36.5606L132.505 36.3021L132.656 35.9114L133.304 36.257L133.235 35.4636H133.701L133.626 36.257L134.281 35.9114L134.425 36.3021L133.746 36.5666L134.206 37.1977L133.833 37.4171L133.464 36.6988L133.094 37.4171Z"
            fill="#263238"/>
        <path d="M135.383 37.4171L135.02 37.1977L135.473 36.5606L134.794 36.3021L134.944 35.9114L135.593 36.257L135.524 35.4636H135.99L135.915 36.257L136.569 35.9114L136.714 36.3021L136.035 36.5666L136.494 37.1977L136.122 37.4171L135.752 36.6988L135.383 37.4171Z"
            fill="#263238"/>
        <path d="M132.373 19.0452H120.611V30.5588H132.373V19.0452Z"
            stroke="#263238"
            stroke-miterlimit="10"
            stroke-linecap="round"
            stroke-linejoin="round"/>
        <path d="M122.768 19.0512V16.4004C122.768 14.3477 124.438 12.6767 126.489 12.6767C128.541 12.6767 130.211 14.3477 130.211 16.4004V19.0512H131.923V16.4004C131.923 13.401 129.484 10.9637 126.489 10.9637C123.492 10.9637 121.056 13.404 121.056 16.4004V19.0512H122.768V19.0512Z"
            stroke="#263238"
            stroke-miterlimit="10"/>
        <path d="M127.844 23.5112C127.844 22.7628 127.237 22.1557 126.489 22.1557C125.741 22.1557 125.135 22.7628 125.135 23.5112C125.135 24.0852 125.492 24.5721 125.997 24.7704V27.4512H126.982V24.7704C127.486 24.5721 127.844 24.0852 127.844 23.5112Z"
            stroke="#263238"
            stroke-miterlimit="10"
            stroke-linecap="round"
            stroke-linejoin="round"/>
        <path d="M23.3082 114.013H11.546V125.526H23.3082V114.013Z"
            stroke="#263238"
            stroke-miterlimit="10"
            stroke-linecap="round"
            stroke-linejoin="round"/>
        <path d="M13.7056 114.016V111.365C13.7056 109.312 15.3756 107.641 17.4271 107.641C19.4786 107.641 21.1486 109.312 21.1486 111.365V114.016H22.8607V111.365C22.8607 108.365 20.4217 105.928 17.4271 105.928C14.4295 105.928 11.9935 108.368 11.9935 111.365V114.016H13.7056Z"
            stroke="#263238"
            stroke-miterlimit="10"/>
        <path d="M18.7817 118.476C18.7817 117.727 18.175 117.12 17.4271 117.12C16.6792 117.12 16.0724 117.727 16.0724 118.476C16.0724 119.05 16.4299 119.536 16.9345 119.735V122.416H17.9197V119.735C18.4243 119.536 18.7817 119.05 18.7817 118.476Z"
            stroke="#263238"
            stroke-miterlimit="10"
            stroke-linecap="round"
            stroke-linejoin="round"/>
        <path d="M7.66832 99.187C8.7286 98.6099 10.3386 96.434 10.3386 96.434C10.3566 96.41 8.58443 95.8089 8.46728 95.7819C7.12165 95.4903 4.3523 95.7157 3.58036 97.0501C3.02469 98.0119 3.51729 99.1689 4.48746 99.6077C5.47866 100.056 6.76422 99.6798 7.66832 99.187Z"
            fill="#919191"/>
        <path d="M14.4265 103.253C15.2615 102.448 16.1896 100.113 16.2617 99.9263C17.5623 100.455 18.941 100.891 20.3587 101.255C21.1697 101.465 21.9927 101.648 22.8187 101.826C22.4282 101.802 22.0798 101.784 22.0317 101.787C20.659 101.859 18.0459 102.808 17.6524 104.299C17.3671 105.372 18.151 106.361 19.2023 106.526C20.2776 106.697 21.419 105.994 22.1579 105.282C22.9088 104.558 23.7378 102.583 23.951 102.057C24.2694 102.12 24.5848 102.189 24.9032 102.252C26.432 102.553 27.9579 102.848 29.4447 103.181C29.9703 103.298 30.4809 103.434 30.9946 103.566C30.6491 103.545 30.3578 103.53 30.3127 103.533C28.9401 103.605 26.3269 104.555 25.9334 106.045C25.6511 107.118 26.432 108.107 27.4833 108.272C28.5586 108.444 29.7 107.74 30.4389 107.028C31.1567 106.337 31.9377 104.522 32.193 103.896C32.7126 104.05 33.2353 104.2 33.7339 104.371C34.0703 104.494 34.4037 104.591 34.7371 104.735C35.0675 104.87 35.3979 105.005 35.7223 105.138C36.338 105.417 36.9778 105.7 37.5725 105.988C37.987 106.184 38.3805 106.379 38.774 106.574C38.2543 106.451 37.2301 106.232 37.14 106.223C35.7703 106.087 33.046 106.628 32.4303 108.044C31.9888 109.063 32.6105 110.157 33.6257 110.481C34.662 110.812 35.8965 110.292 36.7345 109.7C37.6596 109.048 38.8881 106.968 39.0413 106.709C39.6961 107.034 40.3269 107.359 40.9186 107.671C42.2282 108.362 43.3786 109.009 44.3397 109.571L44.9585 108.771C43.9462 108.209 42.7298 107.554 41.3331 106.857C40.6723 106.523 39.9574 106.181 39.2215 105.835C39.2756 105.649 39.576 104.588 39.7291 103.563C40.8855 103.464 42.916 102.481 43.1773 102.352C43.5438 102.983 43.8922 103.602 44.2136 104.191C44.8864 105.42 45.4631 106.541 45.9407 107.506L46.6105 106.643C46.1509 105.778 45.6193 104.801 45.0095 103.746C44.6401 103.103 44.2346 102.424 43.8111 101.727C44.0364 101.534 45.8716 99.9563 46.3522 98.9285C46.7877 97.9968 47.085 96.6895 46.5774 95.7277C46.0818 94.7871 44.8954 94.3633 43.9703 94.9764C42.6877 95.8299 42.6306 98.6099 43.0061 99.9323C43.0271 100.01 43.3605 100.831 43.5798 101.345C43.4056 101.062 43.2374 100.786 43.0542 100.497C42.6967 99.9233 42.3213 99.3613 41.9188 98.7542C41.7145 98.4687 41.5073 98.1801 41.3 97.8886C41.0988 97.5941 40.8495 97.3116 40.6242 97.0171C40.0866 96.3469 39.5099 95.6977 38.9151 95.0545C39.4168 94.739 41.1799 93.5909 41.7566 92.7344C42.3273 91.8808 42.8199 90.6336 42.4624 89.6058C42.114 88.599 41.0057 88.0009 39.9995 88.4697C38.6028 89.1189 38.1252 91.8568 38.2934 93.2243C38.3024 93.3084 38.5337 94.2761 38.6719 94.8051C38.3114 94.4204 37.951 94.0357 37.5755 93.66C36.4852 92.5721 35.3468 91.5082 34.2175 90.4383C33.872 90.1107 33.5296 89.7801 33.1872 89.4525C33.3674 89.3413 35.494 88.0249 36.1368 87.0632C36.7075 86.2097 37.2001 84.9624 36.8426 83.9346C36.4942 82.9278 35.3859 82.3297 34.3797 82.7986C32.983 83.4477 32.5054 86.1856 32.6736 87.5531C32.6856 87.6553 33.022 89.0468 33.1241 89.3954C32.3702 88.6711 31.6253 87.9408 30.9195 87.1924C29.9433 86.1616 29.0452 85.0917 28.2492 83.9947C28.3333 83.9436 30.559 82.5792 31.2168 81.5934C31.7875 80.7399 32.2801 79.4926 31.9227 78.4648C31.5743 77.458 30.4659 76.8599 29.4597 77.3287C28.063 77.9779 27.5854 80.7158 27.7536 82.0833C27.7656 82.1915 28.1291 83.6851 28.2132 83.9526C28.1651 83.8865 28.1111 83.8234 28.063 83.7573C27.228 82.5732 26.5702 81.3229 26.0085 80.1207C25.6811 79.4235 25.4078 78.7383 25.1585 78.0651C25.6 77.8547 27.6034 76.8629 28.2943 76.0424C28.9551 75.255 29.5798 74.0709 29.3396 73.01C29.1023 71.9701 28.069 71.2548 27.0147 71.6095C25.555 72.1024 24.78 74.7711 24.798 76.1476C24.798 76.2228 24.8942 76.9831 24.9693 77.5331C24.8611 77.2266 24.744 76.914 24.6449 76.6195C24.2724 75.5135 24.0021 74.4796 23.7678 73.563C23.6386 73.04 23.5335 72.5652 23.4374 72.1174C23.7618 71.6846 25.0443 69.9204 25.2756 68.8926C25.5009 67.8888 25.5099 66.5484 24.8071 65.7189C24.1192 64.9044 22.8697 64.7482 22.1008 65.5476C21.0315 66.6566 21.5721 69.3825 22.2239 70.5967C22.281 70.7018 23.3473 72.2406 23.3623 72.2166C23.3623 72.2166 23.3773 72.1955 23.3833 72.1895C23.4644 72.6193 23.5575 73.0821 23.6717 73.584C23.8849 74.5097 24.1372 75.5526 24.4857 76.6706C24.8311 77.7886 25.2396 78.9907 25.7832 80.2229C26.3269 81.4551 26.9607 82.7264 27.7837 83.9496C27.7927 83.9646 27.8047 83.9767 27.8137 83.9917C27.4623 83.7092 26.4531 82.9488 26.369 82.9007C25.1825 82.2035 22.4822 81.5543 21.3319 82.5792C20.5028 83.3185 20.611 84.5717 21.3979 85.293C22.1999 86.0293 23.5395 86.0714 24.5487 85.8851C25.6871 85.6747 27.7506 84.2381 27.9128 84.1239C28.7058 85.281 29.6159 86.405 30.5981 87.493C31.1598 88.1151 31.7425 88.7252 32.3372 89.3263C32.0248 89.0918 31.7455 88.8845 31.7034 88.8574C30.517 88.1602 27.8167 87.511 26.6663 88.5358C25.8373 89.2752 25.9454 90.5314 26.7324 91.2497C27.5344 91.986 28.874 92.0281 29.8832 91.8448C30.9074 91.6554 32.6916 90.4653 33.1572 90.1437C33.3885 90.3721 33.6137 90.6036 33.845 90.832C34.9534 91.9259 36.0647 93.0139 37.119 94.1139C37.4914 94.5015 37.8428 94.8953 38.1973 95.292C37.9209 95.0846 37.6837 94.9103 37.6476 94.8892C36.4612 94.192 33.7609 93.5428 32.6105 94.5677C31.7815 95.307 31.8896 96.5633 32.6766 97.2815C33.4786 98.0179 34.8182 98.0599 35.8274 97.8736C36.8066 97.6933 38.4616 96.6113 39.0173 96.2297C39.3687 96.6444 39.7201 97.0591 40.0415 97.4769C40.2548 97.7684 40.48 98.0329 40.6753 98.3334C40.8765 98.628 41.0778 98.9225 41.276 99.214C41.6364 99.788 42.0119 100.377 42.3513 100.945C42.5886 101.339 42.8079 101.717 43.0301 102.099C42.6637 101.708 41.9308 100.96 41.8617 100.906C41.1529 100.329 39.7802 99.6738 38.5577 99.5446C38.4526 99.4574 38.3415 99.3823 38.2243 99.3162C37.2902 98.8053 36.0677 99.1058 35.6352 100.131C35.0344 101.549 36.5212 103.899 37.5635 104.798C37.6236 104.852 38.3565 105.351 38.822 105.661C38.5187 105.522 38.2273 105.381 37.9179 105.243C37.3022 104.963 36.6804 104.702 36.0106 104.416C35.6832 104.29 35.3528 104.164 35.0164 104.035C34.689 103.899 34.3226 103.8 33.9742 103.68C33.1572 103.419 32.3162 103.193 31.4661 102.986C31.7094 102.445 32.5504 100.515 32.5564 99.4815C32.5625 98.4536 32.2831 97.1433 31.4211 96.4821C30.574 95.8359 29.3215 95.9471 28.7388 96.8938C27.9308 98.2072 29.0452 100.753 29.9373 101.802C29.9943 101.868 30.7182 102.544 31.1237 102.911C30.6101 102.79 30.0995 102.667 29.5768 102.562C28.069 102.258 26.5311 101.997 24.9993 101.73C24.5307 101.648 24.0622 101.561 23.5966 101.477C23.6867 101.285 24.732 99.0126 24.738 97.8556C24.744 96.8277 24.4646 95.5174 23.6026 94.8562C22.7556 94.21 21.5031 94.3212 20.9204 95.2679C20.1124 96.5813 21.2237 99.1269 22.1188 100.173C22.1849 100.251 23.2332 101.228 23.5095 101.462C22.4792 101.273 21.455 101.077 20.4548 100.84C19.0731 100.515 17.7335 100.125 16.466 99.6468C16.508 99.5566 17.6103 97.1884 17.6194 96.0042C17.6254 94.9764 17.346 93.666 16.484 93.0049C15.637 92.3587 14.3844 92.4699 13.8017 93.4166C12.9938 94.73 14.1081 97.2755 15.0002 98.3214C15.0693 98.4025 16.1956 99.4514 16.4149 99.6257C16.3398 99.5987 16.2587 99.5777 16.1836 99.5476C14.835 99.0217 13.5945 98.3424 12.4651 97.6482C11.8073 97.2455 11.2036 96.8277 10.6239 96.404C10.8732 95.9832 11.9995 94.0507 12.1227 92.9868C12.2398 91.965 12.1077 90.6306 11.3237 89.8793C10.5548 89.1429 9.29628 89.1189 8.61445 89.9935C7.6683 91.2106 8.4943 93.8644 9.26624 95.0004C9.30829 95.0636 9.80689 95.6436 10.1733 96.0614C9.91502 95.866 9.6447 95.6706 9.3984 95.4783C8.47929 94.763 7.68032 94.0507 6.98047 93.4136C6.58399 93.0469 6.23256 92.7103 5.90817 92.3888C5.93821 91.8478 6.03733 89.6689 5.66488 88.6831C5.29843 87.7214 4.56855 86.6004 3.52328 86.2938C2.50205 85.9963 1.37268 86.5523 1.17144 87.6463C0.892097 89.161 2.84747 91.1355 4.05793 91.7907C4.16306 91.8478 5.89916 92.542 5.90216 92.515C5.90216 92.515 5.90517 92.4879 5.90517 92.4819C6.21154 92.7975 6.54494 93.1281 6.91439 93.4857C7.60222 94.1379 8.38617 94.8712 9.29327 95.6105C10.1974 96.3529 11.2006 97.1313 12.333 97.8556C13.4653 98.5829 14.6938 99.2921 16.0545 99.8602C16.0695 99.8662 16.0875 99.8722 16.1025 99.8782C15.652 99.8361 14.3934 99.761 14.2943 99.767C12.9217 99.8391 10.3085 100.789 9.91502 102.28C9.63268 103.352 10.4136 104.341 11.4649 104.507C12.5462 104.669 13.6876 103.966 14.4265 103.253Z"
            fill="#919191"/>
        <path d="M24.9062 77.9328C24.9332 77.9238 23.7888 76.4421 23.7047 76.355C22.7436 75.3692 20.3106 74.0288 18.929 74.7141C17.9348 75.2069 17.7095 76.4482 18.2772 77.3498C18.8569 78.2694 20.1364 78.6661 21.1607 78.7563C22.3621 78.8585 24.9032 77.9328 24.9062 77.9328Z"
            fill="#919191"/>
        <path d="M134.031 99.187C132.971 98.6099 131.361 96.434 131.361 96.434C131.343 96.41 133.115 95.8089 133.232 95.7819C134.578 95.4903 137.347 95.7157 138.119 97.0501C138.675 98.0119 138.182 99.1689 137.212 99.6077C136.218 100.056 134.932 99.6798 134.031 99.187Z"
            fill="#919191"/>
        <path d="M127.27 103.253C126.435 102.448 125.507 100.113 125.435 99.9263C124.134 100.455 122.756 100.891 121.338 101.255C120.527 101.465 119.704 101.648 118.878 101.826C119.268 101.802 119.617 101.784 119.665 101.787C121.038 101.859 123.651 102.808 124.044 104.299C124.33 105.372 123.546 106.361 122.494 106.526C121.419 106.697 120.278 105.994 119.539 105.282C118.788 104.558 117.959 102.583 117.746 102.057C117.427 102.12 117.112 102.189 116.793 102.252C115.265 102.553 113.739 102.848 112.252 103.181C111.726 103.298 111.216 103.434 110.702 103.566C111.047 103.545 111.339 103.53 111.384 103.533C112.757 103.605 115.37 104.555 115.763 106.045C116.046 107.118 115.265 108.107 114.213 108.272C113.138 108.444 111.997 107.74 111.258 107.028C110.54 106.337 109.759 104.522 109.504 103.896C108.984 104.05 108.461 104.2 107.963 104.371C107.626 104.494 107.293 104.591 106.96 104.735C106.629 104.87 106.299 105.005 105.974 105.138C105.359 105.417 104.719 105.7 104.124 105.988C103.71 106.184 103.316 106.379 102.92 106.574C103.439 106.451 104.464 106.232 104.554 106.223C105.923 106.087 108.648 106.628 109.263 108.044C109.705 109.063 109.083 110.157 108.068 110.481C107.032 110.812 105.797 110.292 104.959 109.7C104.034 109.048 102.806 106.968 102.652 106.709C101.998 107.034 101.367 107.359 100.775 107.671C99.4655 108.362 98.3151 109.009 97.3539 109.571L96.7351 108.771C97.7474 108.209 98.9638 107.554 100.361 106.857C101.021 106.523 101.736 106.181 102.472 105.835C102.418 105.649 102.118 104.588 101.964 103.563C100.808 103.464 98.7776 102.481 98.5163 102.352C98.1499 102.983 97.8014 103.602 97.48 104.191C96.8072 105.42 96.2305 106.541 95.753 107.506L95.0831 106.643C95.5427 105.778 96.0743 104.801 96.6841 103.746C97.0535 103.103 97.459 102.424 97.8825 101.727C97.6573 101.534 95.822 99.9563 95.3415 98.9285C94.9059 97.9968 94.6086 96.6895 95.1162 95.7277C95.6118 94.7871 96.7982 94.3633 97.7233 94.9764C99.0059 95.8299 99.063 98.6099 98.6875 99.9323C98.6665 100.01 98.3331 100.831 98.1138 101.345C98.288 101.062 98.4562 100.786 98.6394 100.497C98.9969 99.9233 99.3723 99.3613 99.7748 98.7542C99.9791 98.4687 100.186 98.1801 100.394 97.8886C100.595 97.5941 100.844 97.3116 101.069 97.0171C101.607 96.3469 102.184 95.6977 102.778 95.0545C102.277 94.739 100.514 93.5909 99.937 92.7344C99.3663 91.8808 98.8737 90.6336 99.2312 89.6058C99.5796 88.599 100.688 88.0009 101.694 88.4697C103.091 89.1189 103.568 91.8568 103.4 93.2243C103.391 93.3084 103.16 94.2761 103.022 94.8051C103.382 94.4204 103.743 94.0357 104.118 93.66C105.208 92.5721 106.347 91.5082 107.476 90.4383C107.822 90.1107 108.164 89.7801 108.506 89.4525C108.326 89.3413 106.2 88.0249 105.557 87.0632C104.986 86.2097 104.494 84.9624 104.851 83.9346C105.199 82.9278 106.308 82.3297 107.314 82.7986C108.711 83.4477 109.188 86.1856 109.02 87.5531C109.008 87.6553 108.672 89.0468 108.569 89.3954C109.323 88.6711 110.068 87.9408 110.774 87.1924C111.75 86.1616 112.648 85.0917 113.444 83.9947C113.36 83.9436 111.135 82.5792 110.477 81.5934C109.906 80.7399 109.413 79.4926 109.771 78.4648C110.119 77.458 111.228 76.8599 112.234 77.3287C113.631 77.9779 114.108 80.7158 113.94 82.0833C113.928 82.1915 113.565 83.6851 113.48 83.9526C113.528 83.8865 113.583 83.8234 113.631 83.7573C114.466 82.5732 115.123 81.3229 115.685 80.1207C116.012 79.4235 116.286 78.7383 116.535 78.0651C116.094 77.8547 114.09 76.8629 113.399 76.0424C112.739 75.255 112.114 74.0709 112.354 73.01C112.591 71.9701 113.625 71.2548 114.679 71.6095C116.139 72.1024 116.914 74.7711 116.896 76.1476C116.896 76.2228 116.799 76.9831 116.724 77.5331C116.832 77.2266 116.95 76.914 117.049 76.6195C117.421 75.5135 117.692 74.4796 117.926 73.563C118.055 73.04 118.16 72.5652 118.256 72.1174C117.932 71.6846 116.649 69.9204 116.418 68.8926C116.193 67.8888 116.184 66.5484 116.887 65.7189C117.574 64.9044 118.824 64.7482 119.593 65.5476C120.662 66.6566 120.121 69.3825 119.47 70.5967C119.413 70.7018 118.346 72.2406 118.331 72.2166C118.331 72.2166 118.316 72.1955 118.31 72.1895C118.229 72.6193 118.136 73.0821 118.022 73.584C117.809 74.5097 117.556 75.5526 117.208 76.6706C116.863 77.7886 116.454 78.9907 115.91 80.2229C115.367 81.4551 114.733 82.7264 113.91 83.9496C113.901 83.9646 113.889 83.9767 113.88 83.9917C114.231 83.7092 115.241 82.9488 115.325 82.9007C116.511 82.2035 119.211 81.5543 120.362 82.5792C121.191 83.3185 121.083 84.5717 120.296 85.293C119.494 86.0293 118.154 86.0714 117.145 85.8851C116.006 85.6747 113.943 84.2381 113.781 84.1239C112.988 85.281 112.078 86.405 111.096 87.493C110.534 88.1151 109.951 88.7252 109.356 89.3263C109.669 89.0918 109.948 88.8845 109.99 88.8574C111.177 88.1602 113.877 87.511 115.027 88.5358C115.856 89.2752 115.748 90.5314 114.961 91.2497C114.159 91.986 112.82 92.0281 111.81 91.8448C110.786 91.6554 109.002 90.4653 108.536 90.1437C108.305 90.3721 108.08 90.6036 107.849 90.832C106.74 91.9259 105.629 93.0139 104.575 94.1139C104.202 94.5015 103.851 94.8953 103.496 95.292C103.773 95.0846 104.01 94.9103 104.046 94.8892C105.232 94.192 107.933 93.5428 109.083 94.5677C109.912 95.307 109.804 96.5633 109.017 97.2815C108.215 98.0179 106.875 98.0599 105.866 97.8736C104.887 97.6933 103.232 96.6113 102.676 96.2297C102.325 96.6444 101.973 97.0591 101.652 97.4769C101.439 97.7684 101.214 98.0329 101.018 98.3334C100.817 98.628 100.616 98.9225 100.418 99.214C100.057 99.788 99.6817 100.377 99.3423 100.945C99.105 101.339 98.8858 101.717 98.6635 102.099C99.0299 101.708 99.7628 100.96 99.8319 100.906C100.541 100.329 101.913 99.6738 103.136 99.5446C103.241 99.4574 103.352 99.3823 103.469 99.3162C104.403 98.8053 105.626 99.1058 106.058 100.131C106.659 101.549 105.172 103.899 104.13 104.798C104.07 104.852 103.337 105.351 102.872 105.661C103.175 105.522 103.463 105.381 103.776 105.243C104.391 104.963 105.013 104.702 105.683 104.416C106.01 104.29 106.341 104.164 106.677 104.035C107.005 103.899 107.371 103.8 107.719 103.68C108.536 103.419 109.377 103.193 110.227 102.986C109.984 102.445 109.143 100.515 109.137 99.4815C109.131 98.4536 109.41 97.1433 110.273 96.4821C111.12 95.8359 112.372 95.9471 112.955 96.8938C113.763 98.2072 112.648 100.753 111.756 101.802C111.699 101.868 110.975 102.544 110.57 102.911C111.084 102.79 111.594 102.667 112.117 102.562C113.625 102.258 115.162 101.997 116.694 101.73C117.163 101.648 117.631 101.561 118.097 101.477C118.007 101.285 116.962 99.0126 116.956 97.8556C116.95 96.8277 117.229 95.5174 118.091 94.8562C118.938 94.21 120.191 94.3212 120.773 95.2679C121.581 96.5813 120.47 99.1269 119.575 100.173C119.509 100.251 118.46 101.228 118.184 101.462C119.214 101.273 120.239 101.077 121.239 100.84C122.621 100.515 123.96 100.125 125.228 99.6468C125.186 99.5566 124.083 97.1884 124.074 96.0042C124.068 94.9764 124.348 93.666 125.21 93.0049C126.057 92.3587 127.309 92.4699 127.892 93.4166C128.7 94.73 127.586 97.2755 126.693 98.3214C126.624 98.4025 125.498 99.4514 125.279 99.6257C125.354 99.5987 125.435 99.5777 125.51 99.5476C126.859 99.0217 128.099 98.3424 129.229 97.6482C129.886 97.2455 130.49 96.8277 131.07 96.404C130.82 95.9832 129.694 94.0507 129.571 92.9868C129.454 91.965 129.586 90.6306 130.37 89.8793C131.139 89.1429 132.397 89.1189 133.079 89.9935C134.025 91.2106 133.199 93.8644 132.427 95.0004C132.385 95.0636 131.887 95.6436 131.52 96.0614C131.779 95.866 132.049 95.6706 132.295 95.4783C133.214 94.763 134.013 94.0507 134.713 93.4136C135.11 93.0469 135.461 92.7103 135.785 92.3888C135.755 91.8478 135.656 89.6689 136.029 88.6831C136.395 87.7214 137.125 86.6004 138.17 86.2938C139.192 85.9963 140.321 86.5523 140.522 87.6463C140.802 89.161 138.846 91.1355 137.636 91.7907C137.531 91.8478 135.794 92.542 135.791 92.515C135.791 92.515 135.788 92.4879 135.788 92.4819C135.482 92.7975 135.149 93.1281 134.779 93.4857C134.091 94.1379 133.307 94.8712 132.4 95.6105C131.496 96.3529 130.493 97.1313 129.361 97.8556C128.228 98.5829 127 99.2921 125.639 99.8602C125.624 99.8662 125.606 99.8722 125.591 99.8782C126.042 99.8361 127.3 99.761 127.399 99.767C128.772 99.8391 131.385 100.789 131.779 102.28C132.061 103.352 131.28 104.341 130.229 104.507C129.153 104.669 128.012 103.966 127.27 103.253Z"
            fill="#919191"/>
        <path d="M116.793 77.9328C116.766 77.9238 117.911 76.4421 117.995 76.355C118.956 75.3692 121.389 74.0288 122.771 74.7141C123.765 75.2069 123.99 76.4482 123.422 77.3498C122.843 78.2694 121.563 78.6661 120.539 78.7563C119.338 78.8585 116.793 77.9328 116.793 77.9328Z"
            fill="#919191"/>
        <path d="M85.6938 12.1748C84.7326 12.9052 82.0894 13.4792 82.0864 13.4792C82.0594 13.4852 82.2366 11.6219 82.2606 11.5046C82.546 10.1582 83.8886 7.72386 85.4205 7.56758C86.5258 7.45337 87.3758 8.38204 87.3788 9.44595C87.3818 10.5369 86.5138 11.5557 85.6938 12.1748Z"
            fill="#919191"/>
        <path d="M86.6249 20.0129C85.5496 20.4457 83.0386 20.3315 82.8403 20.3195C82.7863 21.723 82.6181 23.1596 82.3688 24.6021C82.2276 25.4286 82.0564 26.2551 81.8762 27.0816C82.0143 26.7149 82.1405 26.3904 82.1645 26.3483C82.7953 25.1251 84.7326 23.1325 86.2525 23.385C87.3488 23.5683 87.9255 24.6863 87.6461 25.7141C87.3608 26.763 86.2525 27.5174 85.2973 27.8991C84.3301 28.2868 82.1885 28.2327 81.6208 28.2116C81.5488 28.5272 81.4797 28.8458 81.4076 29.1613C81.0562 30.6791 80.6957 32.1908 80.3894 33.6875C80.2812 34.2134 80.1941 34.7363 80.104 35.2593C80.2272 34.9347 80.3323 34.6612 80.3533 34.6221C80.9841 33.3989 82.9214 31.4064 84.4413 31.6588C85.5376 31.8421 86.1143 32.9601 85.8349 33.988C85.5496 35.0369 84.4413 35.7912 83.4861 36.1729C82.564 36.5426 80.5846 36.5125 79.9118 36.4885C79.8367 37.0264 79.7616 37.5644 79.7105 38.0903C79.6865 38.448 79.6354 38.7936 79.6324 39.1543C79.6204 39.5119 79.6084 39.8665 79.5964 40.2182C79.5964 40.8944 79.5934 41.5946 79.6114 42.2558C79.6204 42.7156 79.6384 43.1544 79.6535 43.5932C79.7556 43.0673 79.9748 42.0424 80.0049 41.9583C80.4434 40.6539 82.0564 38.3909 83.5972 38.4089C84.7056 38.424 85.4475 39.4428 85.3273 40.5007C85.2042 41.5826 84.222 42.4932 83.3389 43.0162C82.3657 43.5932 79.9658 43.8607 79.6655 43.8908C79.6925 44.6211 79.7285 45.3303 79.7706 46.0005C79.8637 47.4792 79.9809 48.7925 80.098 49.9045L79.1158 50.142C79.0197 48.9879 78.9236 47.6084 78.8605 46.0486C78.8275 45.3063 78.8094 44.5159 78.7974 43.7014C78.6052 43.6744 77.5149 43.5121 76.5177 43.2326C75.953 44.2484 74.2229 45.694 73.9976 45.8803C74.4241 46.4724 74.8446 47.0464 75.2501 47.5814C76.0942 48.6994 76.8781 49.6852 77.5599 50.5176L76.4996 50.7731C75.8989 49.9977 75.2291 49.1111 74.5142 48.1223C74.0787 47.5213 73.6252 46.8721 73.1686 46.1989C72.9013 46.3251 70.7086 47.35 69.5763 47.368C68.549 47.383 67.2364 47.1155 66.5666 46.259C65.9118 45.4175 66.0139 44.1642 66.9541 43.5722C68.2577 42.7517 70.8138 43.8427 71.868 44.7263C71.9311 44.7773 72.5408 45.4205 72.9193 45.8322C72.7331 45.5557 72.5499 45.2913 72.3606 45.0058C71.9852 44.4437 71.6277 43.8697 71.2403 43.2536C71.0631 42.9501 70.8858 42.6435 70.7056 42.334C70.5194 42.0304 70.3632 41.6878 70.189 41.3602C69.8015 40.5968 69.4441 39.8034 69.1017 38.995C68.6091 39.3226 66.8369 40.4616 65.8217 40.6329C64.8095 40.8042 63.4699 40.7381 62.6799 39.9928C61.905 39.2625 61.8149 38.0032 62.6559 37.2789C63.8213 36.2721 66.5125 36.9603 67.687 37.6756C67.7591 37.7207 68.546 38.3278 68.9725 38.6704C68.7713 38.1835 68.567 37.6996 68.3808 37.1977C67.8372 35.7582 67.3325 34.2795 66.8249 32.8099C66.6687 32.3591 66.5095 31.9113 66.3503 31.4635C66.1761 31.5807 64.1006 32.9812 62.9622 33.1735C61.95 33.3448 60.6104 33.2787 59.8204 32.5334C59.0455 31.8031 58.9554 30.5438 59.7964 29.8195C60.9618 28.8097 63.6531 29.5009 64.8275 30.2162C64.9146 30.2703 66.047 31.1449 66.3233 31.3823C65.9719 30.3965 65.6145 29.4168 65.221 28.4641C64.6803 27.1507 64.0766 25.8915 63.4038 24.7164C63.3227 24.7705 61.1631 26.2431 59.9977 26.4384C58.9854 26.6098 57.6458 26.5436 56.8558 25.7983C56.0809 25.068 55.9908 23.8117 56.8318 23.0844C57.9972 22.0746 60.6885 22.7659 61.8629 23.4811C61.956 23.5382 63.1695 24.4819 63.3767 24.6683C63.3377 24.5991 63.3017 24.521 63.2626 24.4519C62.5267 23.2046 61.6587 22.0896 60.7936 21.0858C60.292 20.5028 59.7814 19.9708 59.2708 19.4659C58.8953 19.7815 57.1712 21.203 56.141 21.4946C55.1528 21.7741 53.8162 21.8582 52.9481 21.2031C52.0981 20.5599 51.8698 19.3217 52.6267 18.5072C53.675 17.3772 56.4263 17.7679 57.6728 18.3479C57.7419 18.381 58.3937 18.7777 58.8653 19.0752C58.631 18.8498 58.3937 18.6154 58.1684 18.405C57.3154 17.6116 56.4834 16.9384 55.7415 16.3493C55.318 16.0187 54.9275 15.7242 54.5611 15.4567C54.0324 15.5739 51.8998 16.0218 50.8666 15.8114C49.8604 15.604 48.6349 15.063 48.1663 14.0803C47.7068 13.1185 48.0762 11.9134 49.1215 11.5407C50.5722 11.0208 52.834 12.6347 53.672 13.7256C53.7441 13.8188 54.7082 15.4237 54.6812 15.4327C54.6812 15.4327 54.6542 15.4387 54.6482 15.4387C55.0086 15.6912 55.3901 15.9647 55.8016 16.2742C56.5555 16.8482 57.4055 17.5064 58.2796 18.2848C59.1566 19.0602 60.0848 19.9258 60.9828 20.9266C61.8839 21.9273 62.779 23.0273 63.557 24.2806C63.566 24.2956 63.572 24.3106 63.581 24.3257C63.4669 23.8899 63.1905 22.6547 63.1815 22.5585C63.0343 21.191 63.551 18.4591 64.9567 17.831C65.9689 17.3802 67.0682 17.9933 67.4016 19.0061C67.741 20.04 67.2334 21.2782 66.6477 22.1257C65.9899 23.0784 63.8333 24.3707 63.6591 24.4729C64.389 25.6721 65.0408 26.9644 65.6265 28.3048C65.9629 29.0712 66.2783 29.8556 66.5846 30.643C66.4975 30.2613 66.4254 29.9217 66.4194 29.8706C66.2723 28.5031 66.7889 25.7712 68.1946 25.1431C69.2068 24.6893 70.3061 25.3054 70.6395 26.3182C70.979 27.3521 70.4713 28.5903 69.8856 29.4378C69.2939 30.2974 67.4767 31.4334 66.9931 31.7279C67.1073 32.0315 67.2244 32.335 67.3385 32.6386C67.8822 34.0992 68.4169 35.5598 68.9845 36.9753C69.1858 37.4742 69.399 37.9581 69.6153 38.442C69.5402 38.1024 69.4771 37.8169 69.4741 37.7748C69.327 36.4073 69.8436 33.6754 71.2493 33.0473C72.2645 32.5935 73.3608 33.2096 73.6972 34.2224C74.0367 35.2563 73.529 36.4945 72.9433 37.342C72.3787 38.1595 70.7116 39.2264 70.1349 39.578C70.3692 40.0679 70.6035 40.5608 70.8498 41.0236C71.027 41.3362 71.1742 41.6517 71.3694 41.9553C71.5557 42.2618 71.7419 42.5624 71.9251 42.8629C72.3006 43.4279 72.682 44.011 73.0605 44.5519C73.3218 44.9306 73.5771 45.2853 73.8324 45.6459C73.6282 45.153 73.2467 44.1763 73.2227 44.0891C72.9884 43.2055 72.9554 41.6848 73.3368 40.5157C73.3008 40.3865 73.2767 40.2542 73.2677 40.119C73.1866 39.0581 73.9616 38.0663 75.0729 38.0903C76.6138 38.1264 78.1426 40.4466 78.5361 41.7659C78.5601 41.8441 78.7163 42.7156 78.8034 43.2686C78.8004 42.935 78.7944 42.6135 78.7944 42.2708C78.7914 41.5946 78.8094 40.9184 78.8245 40.1911C78.8455 39.8395 78.8635 39.4849 78.8845 39.1272C78.8965 38.7726 78.9566 38.3969 78.9897 38.0302C79.0858 37.1767 79.2269 36.3202 79.3861 35.4576C78.7944 35.4576 76.6889 35.4306 75.7457 35.0128C74.8056 34.5951 73.7273 33.8047 73.478 32.7438C73.2347 31.7069 73.8534 30.6069 74.9528 30.4657C76.4816 30.2673 78.3439 32.329 78.9326 33.5732C78.9686 33.6514 79.29 34.5921 79.4552 35.112C79.5543 34.5951 79.6535 34.0782 79.7706 33.5582C80.113 32.0555 80.5035 30.5468 80.891 29.0411C81.0081 28.5783 81.1222 28.1185 81.2364 27.6556C81.0261 27.6586 78.5241 27.6797 77.4668 27.2108C76.5267 26.7931 75.4484 26.0027 75.1991 24.9418C74.9558 23.9049 75.5745 22.8079 76.6739 22.6637C78.2027 22.4653 80.065 24.527 80.6537 25.7712C80.6987 25.8644 81.1583 27.2198 81.2574 27.5685C81.5097 26.5526 81.75 25.5368 81.9452 24.527C82.2186 23.1325 82.4108 21.75 82.4949 20.3976C82.3958 20.3976 79.7856 20.4337 78.7043 19.9528C77.7642 19.5351 76.6859 18.7446 76.4366 17.6837C76.1933 16.6469 76.812 15.5499 77.9114 15.4056C79.4402 15.2073 81.3025 17.269 81.8912 18.5132C81.9362 18.6124 82.4318 20.067 82.5009 20.3375C82.5069 20.2563 82.5189 20.1752 82.5249 20.0941C82.597 18.6485 82.4889 17.2389 82.3207 15.9226C82.2246 15.1592 82.0894 14.4319 81.9422 13.7316C81.4556 13.7887 79.233 14.0202 78.2117 13.6956C77.2325 13.383 76.0701 12.7158 75.7097 11.691C75.3553 10.6872 75.8478 9.5271 76.9262 9.26563C78.422 8.90198 80.5035 10.7443 81.2214 11.9164C81.2604 11.9795 81.5878 12.6737 81.8161 13.1817C81.744 12.8661 81.6779 12.5385 81.6028 12.235C81.3265 11.1019 81.0051 10.0831 80.7137 9.18148C80.5425 8.67056 80.3803 8.21074 80.2211 7.78397C79.7165 7.59163 77.6891 6.78618 76.9442 6.04085C76.2173 5.31354 75.4964 4.18351 75.6466 3.10758C75.7938 2.05269 76.767 1.25025 77.8453 1.51472C79.3411 1.88138 80.3383 4.47504 80.4374 5.8485C80.4464 5.96571 80.3653 7.83807 80.3383 7.82905C80.3383 7.82905 80.3143 7.82004 80.3083 7.81703C80.4674 8.22577 80.6357 8.66455 80.8099 9.14842C81.1222 10.044 81.4677 11.0599 81.768 12.1929C82.0714 13.3229 82.3688 14.5581 82.567 15.8895C82.7652 17.2209 82.9064 18.6334 82.8644 20.1091C82.8644 20.1271 82.8613 20.1421 82.8613 20.1602C83.0085 19.7334 83.4561 18.5523 83.5011 18.4651C84.1319 17.2419 86.0692 15.2494 87.5891 15.5018C88.6854 15.6851 89.2621 16.8032 88.9828 17.831C88.6854 18.8769 87.5771 19.6312 86.6249 20.0129Z"
            fill="#919191"/>
        <path d="M59.2467 19.1774C59.2257 19.1984 58.3457 17.5455 58.3036 17.4343C57.799 16.154 57.5767 13.383 58.7692 12.4033C59.6282 11.7 60.8507 12.0005 61.4394 12.8901C62.0401 13.7978 61.8779 15.1261 61.5355 16.0969C61.136 17.2359 59.2498 19.1744 59.2467 19.1774Z"
            fill="#919191"/>
        <path d="M108.011 30.1381V26.2521H105.446L34.2835 97.4559V103.908L108.011 30.1381Z"
            fill="white"/>
        <path d="M34.2835 46.4664V71.7628L79.7676 26.2521H54.486L34.2835 46.4664Z"
            fill="white"/>
        <path d="M97.0355 123.906L108.011 112.925V87.6282L71.7539 123.906H97.0355Z"
            fill="white"/>
        <path d="M110.24 130.918H32.0548C30.3608 130.918 28.9881 129.544 28.9881 127.849V22.309C28.9881 20.614 30.3608 19.2405 32.0548 19.2405H110.237C111.931 19.2405 113.303 20.614 113.303 22.309V127.849C113.306 129.544 111.934 130.918 110.24 130.918Z"
            fill="#263238"/>
        <path d="M108.011 26.2521H34.2835V123.906H108.011V26.2521Z"
            fill="#FF375B"/>
        <path opacity="0.2"
            d="M28.9881 36.3592V67.6063L77.3287 19.2405H46.0998L28.9881 36.3592Z"
            fill="white"/>
        <path opacity="0.2"
            d="M113.306 22.9462V21.9664C113.306 20.4607 112.087 19.2405 110.582 19.2405H109.044L28.9881 99.3402V107.311L113.306 22.9462Z"
            fill="white"/>
        <path opacity="0.2"
            d="M113.306 125.202V93.9546L76.3645 130.918H107.59L113.306 125.202Z"
            fill="white"/>
        <path d="M88.4331 64.661H53.8582V70.5275H88.4331V64.661Z"
            fill="white"
            stroke="#263238"
            stroke-miterlimit="10"
            stroke-linecap="round"
            stroke-linejoin="round"/>
        <path d="M88.4331 75.5856H53.8582V81.4521H88.4331V75.5856Z"
            fill="white"
            stroke="#263238"
            stroke-miterlimit="10"
            stroke-linecap="round"
            stroke-linejoin="round"/>
        <path d="M79.1008 92.4489H63.1935C62.3915 92.4489 61.7397 91.7967 61.7397 90.9942V88.0369C61.7397 87.2345 62.3915 86.5823 63.1935 86.5823H79.1008C79.9027 86.5823 80.5545 87.2345 80.5545 88.0369V90.9942C80.5575 91.7967 79.9058 92.4489 79.1008 92.4489Z"
            fill="#263238"
            stroke="#263238"
            stroke-miterlimit="10"
            stroke-linecap="round"
            stroke-linejoin="round"/>
        <path d="M77.0854 46.1658C77.0854 48.0622 76.1993 49.7543 74.8116 50.8422C73.8024 51.6417 72.5259 52.1135 71.1412 52.1135C69.7535 52.1135 68.4769 51.6386 67.4677 50.8422C66.08 49.7573 65.194 48.0652 65.194 46.1658C65.194 42.8779 67.8552 40.2151 71.1412 40.2151C74.4241 40.2151 77.0854 42.8779 77.0854 46.1658Z"
            fill="white"
            stroke="#263238"
            stroke-miterlimit="10"
            stroke-linecap="round"
            stroke-linejoin="round"/>
        <path d="M72.8947 46.9926C73.8647 46.022 73.8647 44.4483 72.8947 43.4777C71.9246 42.5071 70.3519 42.5071 69.3818 43.4777C68.4118 44.4483 68.4118 46.022 69.3818 46.9926C70.3519 47.9633 71.9246 47.9633 72.8947 46.9926Z"
            fill="#263238"
            stroke="#263238"
            stroke-miterlimit="10"
            stroke-linecap="round"
            stroke-linejoin="round"/>
        <path d="M74.8116 50.8422C73.8024 51.6417 72.5258 52.1135 71.1412 52.1135C69.7535 52.1135 68.4769 51.6387 67.4677 50.8422C67.8372 49.1532 69.342 47.8879 71.1412 47.8879C72.9373 47.8879 74.4422 49.1532 74.8116 50.8422Z"
            fill="#263238"
            stroke="#263238"
            stroke-miterlimit="10"
            stroke-linecap="round"
            stroke-linejoin="round"/>
        <path d="M67.5759 58.9718V56.3781H68.0504V58.6472H68.6782V58.9748H67.5759V58.9718Z"
            fill="#263238"/>
        <path d="M69.5973 59.0049C69.4141 59.0049 69.2669 58.9718 69.1588 58.9027C69.0506 58.8336 68.9725 58.7374 68.9245 58.6082C68.8764 58.4789 68.8554 58.3287 68.8554 58.1543V57.1836C68.8554 57.0093 68.8794 56.859 68.9245 56.7328C68.9725 56.6066 69.0506 56.5134 69.1588 56.4473C69.2669 56.3812 69.4141 56.3481 69.5973 56.3481C69.7865 56.3481 69.9337 56.3812 70.0418 56.4473C70.15 56.5134 70.2281 56.6096 70.2761 56.7328C70.3242 56.859 70.3482 57.0063 70.3482 57.1836V58.1573C70.3482 58.3317 70.3242 58.4789 70.2761 58.6082C70.2281 58.7344 70.15 58.8336 70.0418 58.9027C69.9337 58.9718 69.7835 59.0049 69.5973 59.0049ZM69.5973 58.6562C69.6754 58.6562 69.7355 58.6382 69.7715 58.6051C69.8076 58.5721 69.8346 58.524 69.8466 58.4639C69.8586 58.4038 69.8646 58.3377 69.8646 58.2685V57.0724C69.8646 57.0003 69.8586 56.9341 69.8466 56.877C69.8346 56.8199 69.8076 56.7749 69.7715 56.7418C69.7355 56.7087 69.6754 56.6907 69.5973 56.6907C69.5222 56.6907 69.4651 56.7087 69.4261 56.7418C69.387 56.7749 69.363 56.8199 69.348 56.877C69.336 56.9341 69.33 57.0003 69.33 57.0724V58.2685C69.33 58.3377 69.336 58.4038 69.348 58.4639C69.36 58.524 69.384 58.5721 69.4231 58.6051C69.4621 58.6382 69.5192 58.6562 69.5973 58.6562Z"
            fill="#263238"/>
        <path d="M71.3454 59.0049C71.1742 59.0049 71.0391 58.9688 70.9399 58.8967C70.8408 58.8245 70.7687 58.7224 70.7237 58.5871C70.6786 58.4549 70.6576 58.2956 70.6576 58.1153V57.2437C70.6576 57.0574 70.6786 56.8981 70.7207 56.7628C70.7627 56.6276 70.8378 56.5254 70.9459 56.4533C71.0541 56.3812 71.2013 56.3451 71.3935 56.3451C71.5707 56.3451 71.7119 56.3751 71.817 56.4353C71.9221 56.4954 71.9972 56.5825 72.0423 56.6937C72.0873 56.8049 72.1114 56.9432 72.1114 57.1025V57.2377H71.6608V57.0904C71.6608 57.0063 71.6548 56.9342 71.6428 56.877C71.6308 56.8169 71.6067 56.7719 71.5737 56.7418C71.5377 56.7118 71.4806 56.6967 71.4025 56.6967C71.3184 56.6967 71.2583 56.7178 71.2223 56.7568C71.1862 56.7989 71.1622 56.85 71.1532 56.9161C71.1442 56.9822 71.1382 57.0544 71.1382 57.1325V58.2175C71.1382 58.3076 71.1442 58.3858 71.1592 58.4519C71.1742 58.518 71.2013 58.5691 71.2433 58.6051C71.2823 58.6412 71.3424 58.6592 71.4175 58.6592C71.4956 58.6592 71.5527 58.6412 71.5947 58.6021C71.6338 58.5631 71.6638 58.509 71.6788 58.4429C71.6938 58.3737 71.7029 58.2926 71.7029 58.1994V57.956H71.4235V57.6585H72.1294V58.9748H71.826L71.79 58.7194C71.7569 58.8035 71.7029 58.8756 71.6338 58.9297C71.5587 58.9778 71.4656 59.0049 71.3454 59.0049Z"
            fill="#263238"/>
        <path d="M72.4988 58.9718V56.3781H72.9674V58.9718H72.4988Z"
            fill="#263238"/>
        <path d="M73.3639 58.9718V56.3781H73.6943L74.3251 57.8598V56.3781H74.7155V58.9718H74.4032L73.7694 57.421V58.9718H73.3639Z"
            fill="#263238"/>
        <path d="M65.5694 69.0881C65.3802 69.0881 65.236 69.052 65.1369 68.9769C65.0378 68.9017 64.9687 68.7966 64.9327 68.6613C64.8966 68.5261 64.8786 68.3668 64.8786 68.1865V66.4674H65.224V68.2045C65.224 68.3157 65.233 68.4179 65.245 68.508C65.2601 68.6012 65.2931 68.6733 65.3442 68.7274C65.3952 68.7815 65.4703 68.8086 65.5694 68.8086C65.6716 68.8086 65.7467 68.7815 65.7977 68.7274C65.8458 68.6733 65.8788 68.6012 65.8938 68.508C65.9089 68.4149 65.9149 68.3157 65.9149 68.2045V66.4674H66.2573V68.1865C66.2573 68.3668 66.2393 68.5261 66.2032 68.6613C66.1672 68.7966 66.0981 68.9017 65.999 68.9769C65.8998 69.052 65.7557 69.0881 65.5694 69.0881Z"
            fill="#CCCCCC"/>
        <path d="M67.2485 69.088C67.0983 69.088 66.9752 69.0549 66.876 68.9918C66.7769 68.9287 66.7018 68.8385 66.6508 68.7273C66.5997 68.6131 66.5697 68.4839 66.5607 68.3336L66.8821 68.2464C66.8881 68.3396 66.9031 68.4268 66.9241 68.5109C66.9451 68.5951 66.9842 68.6672 67.0352 68.7213C67.0863 68.7754 67.1584 68.8024 67.2485 68.8024C67.3416 68.8024 67.4137 68.7754 67.4618 68.7243C67.5098 68.6732 67.5338 68.5981 67.5338 68.4989C67.5338 68.3817 67.5068 68.2855 67.4527 68.2164C67.3987 68.1443 67.3326 68.0721 67.2515 68L66.816 67.6153C66.7319 67.5402 66.6688 67.459 66.6267 67.3689C66.5847 67.2817 66.5667 67.1705 66.5667 67.0413C66.5667 66.8519 66.6207 66.7047 66.7289 66.5995C66.837 66.4943 66.9872 66.4432 67.1734 66.4432C67.2755 66.4432 67.3656 66.4552 67.4437 66.4823C67.5218 66.5093 67.5879 66.5514 67.639 66.6055C67.69 66.6596 67.7321 66.7317 67.7651 66.8159C67.7952 66.9 67.8162 66.9992 67.8282 67.1134L67.5218 67.1976C67.5158 67.1134 67.5038 67.0323 67.4828 66.9631C67.4648 66.891 67.4287 66.8339 67.3807 66.7888C67.3326 66.7437 67.2635 66.7227 67.1734 66.7227C67.0833 66.7227 67.0142 66.7468 66.9632 66.7948C66.9121 66.8429 66.8881 66.9151 66.8881 67.0082C66.8881 67.0864 66.9001 67.1525 66.9271 67.2036C66.9541 67.2547 66.9962 67.3058 67.0563 67.3599L67.4948 67.7445C67.5939 67.8287 67.678 67.9309 67.7531 68.0511C67.8282 68.1683 67.8642 68.3096 67.8642 68.4718C67.8642 68.6011 67.8372 68.7093 67.7831 68.8024C67.7291 68.8956 67.657 68.9677 67.5639 69.0158C67.4798 69.0639 67.3716 69.088 67.2485 69.088Z"
            fill="#CCCCCC"/>
        <path d="M68.1526 69.0609V66.4673H69.1588V66.7377H68.516V67.5973H69.0387V67.8527H68.516V68.8054H69.1648V69.0639H68.1526V69.0609Z"
            fill="#CCCCCC"/>
        <path d="M69.4562 69.0609V66.4673H69.9788C70.153 66.4673 70.2942 66.4913 70.4083 66.5364C70.5225 66.5815 70.6066 66.6566 70.6606 66.7588C70.7147 66.861 70.7417 66.9932 70.7417 67.1585C70.7417 67.2577 70.7297 67.3508 70.7087 67.432C70.6877 67.5131 70.6516 67.5823 70.6066 67.6394C70.5585 67.6965 70.4984 67.7385 70.4203 67.7626L70.7898 69.0639H70.4414L70.102 67.8467H69.8196V69.0639H69.4562V69.0609ZM69.8166 67.5823H69.9548C70.0569 67.5823 70.141 67.5702 70.2041 67.5432C70.2672 67.5161 70.3152 67.4741 70.3453 67.4109C70.3753 67.3478 70.3903 67.2637 70.3903 67.1525C70.3903 67.0022 70.3633 66.891 70.3062 66.8249C70.2491 66.7588 70.141 66.7227 69.9758 66.7227H69.8166V67.5823Z"
            fill="#CCCCCC"/>
        <path d="M71.1172 69.0609V66.4673H71.3635L72.0994 68.1923V66.4673H72.3997V69.0609H72.1685L71.4236 67.2877V69.0609H71.1172Z"
            fill="#CCCCCC"/>
        <path d="M72.6671 69.0609L73.2167 66.4673H73.5651L74.1178 69.0609H73.7754L73.6583 68.4087H73.1296L73.0035 69.0609H72.6671ZM73.1807 68.1473H73.6132L73.3969 66.9782L73.1807 68.1473Z"
            fill="#CCCCCC"/>
        <path d="M74.3761 69.0609L74.4242 66.4673H74.7786L75.2351 68.571L75.6977 66.4673H76.0491L76.0972 69.0609H75.8058L75.7758 67.1765L75.3373 69.0609H75.133L74.6975 67.1765L74.6675 69.0609H74.3761Z"
            fill="#CCCCCC"/>
        <path d="M76.4966 69.0609V66.4673H77.5029V66.7377H76.8601V67.5973H77.3827V67.8527H76.8601V68.8054H77.5089V69.0639H76.4966V69.0609Z"
            fill="#CCCCCC"/>
        <path d="M64.6473 79.7963V77.1996H65.2901C65.4463 77.1996 65.5695 77.2267 65.6626 77.2838C65.7557 77.3409 65.8218 77.422 65.8668 77.5302C65.9089 77.6384 65.9299 77.7677 65.9299 77.9179C65.9299 78.0532 65.9059 78.1734 65.8578 78.2726C65.8097 78.3717 65.7377 78.4499 65.6445 78.504C65.5514 78.5581 65.4343 78.5851 65.2931 78.5851H65.0078V79.7933H64.6473V79.7963ZM65.0108 78.3297H65.176C65.2811 78.3297 65.3622 78.3176 65.4223 78.2936C65.4824 78.2696 65.5244 78.2275 65.5514 78.1704C65.5785 78.1103 65.5905 78.0291 65.5905 77.9209C65.5905 77.7977 65.5815 77.7015 65.5634 77.6354C65.5454 77.5693 65.5064 77.5242 65.4493 77.4972C65.3922 77.4701 65.3021 77.4581 65.179 77.4581H65.0078V78.3297H65.0108Z"
            fill="#CCCCCC"/>
        <path d="M65.9239 79.7962L66.4736 77.1995H66.822L67.3746 79.7962H67.0322L66.9151 79.144H66.3865L66.2603 79.7962H65.9239ZM66.4345 78.8825H66.867L66.6508 77.7134L66.4345 78.8825Z"
            fill="#CCCCCC"/>
        <path d="M68.2487 79.8232C68.0985 79.8232 67.9754 79.7902 67.8762 79.727C67.7771 79.6639 67.702 79.5738 67.651 79.4626C67.5999 79.3484 67.5699 79.2191 67.5609 79.0689L67.8822 78.9817C67.8883 79.0749 67.9033 79.162 67.9243 79.2462C67.9453 79.3303 67.9844 79.4025 68.0354 79.4566C68.0865 79.5107 68.1586 79.5377 68.2487 79.5377C68.3418 79.5377 68.4139 79.5107 68.4619 79.4596C68.51 79.4085 68.534 79.3303 68.534 79.2342C68.534 79.117 68.507 79.0208 68.4529 78.9517C68.3989 78.8795 68.3328 78.8074 68.2517 78.7353L67.8162 78.3506C67.7321 78.2754 67.669 78.1943 67.6269 78.1041C67.5849 78.017 67.5669 77.9058 67.5669 77.7765C67.5669 77.5872 67.6209 77.4399 67.7291 77.3348C67.8372 77.2296 67.9874 77.1785 68.1736 77.1785C68.2757 77.1785 68.3658 77.1935 68.4439 77.2175C68.522 77.2446 68.5881 77.2867 68.6392 77.3408C68.6902 77.3949 68.7323 77.467 68.7653 77.5511C68.7954 77.6353 68.8164 77.7345 68.8284 77.8487L68.522 77.9328C68.516 77.8487 68.504 77.7705 68.483 77.6984C68.4649 77.6263 68.4289 77.5692 68.3808 77.5241C68.3328 77.482 68.2637 77.458 68.1736 77.458C68.0835 77.458 68.0144 77.482 67.9633 77.5301C67.9123 77.5782 67.8883 77.6503 67.8883 77.7435C67.8883 77.8216 67.9003 77.8877 67.9273 77.9388C67.9543 77.9899 67.9964 78.041 68.0565 78.0951L68.495 78.4798C68.5941 78.564 68.6782 78.6661 68.7533 78.7864C68.8284 78.9036 68.8644 79.0448 68.8644 79.2071C68.8644 79.3363 68.8374 79.4445 68.7833 79.5377C68.7293 79.6309 68.6572 79.7 68.5641 79.7511C68.48 79.7992 68.3718 79.8232 68.2487 79.8232Z"
            fill="#CCCCCC"/>
        <path d="M69.7655 79.8232C69.6154 79.8232 69.4922 79.7902 69.3931 79.727C69.294 79.6639 69.2189 79.5738 69.1678 79.4626C69.1167 79.3484 69.0867 79.2191 69.0777 79.0689L69.3991 78.9817C69.4051 79.0749 69.4201 79.162 69.4411 79.2462C69.4622 79.3303 69.5012 79.4025 69.5523 79.4566C69.6033 79.5107 69.6754 79.5377 69.7655 79.5377C69.8586 79.5377 69.9307 79.5107 69.9788 79.4596C70.0268 79.4085 70.0509 79.3303 70.0509 79.2342C70.0509 79.117 70.0238 79.0208 69.9698 78.9517C69.9157 78.8795 69.8496 78.8074 69.7685 78.7353L69.333 78.3506C69.2489 78.2754 69.1858 78.1943 69.1438 78.1041C69.1017 78.017 69.0837 77.9058 69.0837 77.7765C69.0837 77.5872 69.1378 77.4399 69.2459 77.3348C69.354 77.2296 69.5042 77.1785 69.6904 77.1785C69.7926 77.1785 69.8827 77.1935 69.9608 77.2175C70.0389 77.2446 70.1049 77.2867 70.156 77.3408C70.2071 77.3949 70.2491 77.467 70.2822 77.5511C70.3122 77.6353 70.3332 77.7345 70.3452 77.8487L70.0389 77.9328C70.0329 77.8487 70.0208 77.7705 69.9998 77.6984C69.9818 77.6263 69.9458 77.5692 69.8977 77.5241C69.8496 77.482 69.7806 77.458 69.6904 77.458C69.6003 77.458 69.5313 77.482 69.4802 77.5301C69.4291 77.5782 69.4051 77.6503 69.4051 77.7435C69.4051 77.8216 69.4171 77.8877 69.4441 77.9388C69.4712 77.9899 69.5132 78.041 69.5733 78.0951L70.0118 78.4798C70.1109 78.564 70.1951 78.6661 70.2701 78.7864C70.3452 78.9036 70.3813 79.0448 70.3813 79.2071C70.3813 79.3363 70.3542 79.4445 70.3002 79.5377C70.2461 79.6309 70.174 79.7 70.0809 79.7511C69.9938 79.7992 69.8857 79.8232 69.7655 79.8232Z"
            fill="#CCCCCC"/>
        <path d="M71.003 79.7962L70.5795 77.1995H70.8799L71.1592 79.0628L71.5077 77.2085H71.763L72.1144 79.0719L72.3877 77.1965H72.6821L72.2646 79.7932H72.0033L71.6428 77.8697L71.2764 79.7932H71.003V79.7962Z"
            fill="#CCCCCC"/>
        <path d="M73.6402 79.8232C73.466 79.8232 73.3248 79.7902 73.2197 79.721C73.1146 79.6519 73.0395 79.5557 72.9944 79.4265C72.9494 79.3003 72.9283 79.15 72.9283 78.9787V77.9959C72.9283 77.8246 72.9524 77.6774 72.9974 77.5541C73.0425 77.4309 73.1176 77.3377 73.2227 77.2716C73.3248 77.2055 73.466 77.1725 73.6402 77.1725C73.8144 77.1725 73.9526 77.2055 74.0577 77.2716C74.1598 77.3377 74.2349 77.4309 74.28 77.5541C74.325 77.6774 74.3491 77.8216 74.3491 77.9929V78.9787C74.3491 79.147 74.325 79.2943 74.28 79.4205C74.2349 79.5467 74.1598 79.6429 74.0577 79.715C73.9526 79.7901 73.8144 79.8232 73.6402 79.8232ZM73.6402 79.5407C73.7363 79.5407 73.8084 79.5197 73.8565 79.4806C73.9045 79.4415 73.9376 79.3844 73.9556 79.3153C73.9736 79.2432 73.9826 79.159 73.9826 79.0628V77.9268C73.9826 77.8306 73.9736 77.7465 73.9556 77.6774C73.9376 77.6082 73.9045 77.5541 73.8565 77.5181C73.8084 77.482 73.7333 77.461 73.6402 77.461C73.5441 77.461 73.472 77.479 73.4209 77.5181C73.3699 77.5541 73.3368 77.6082 73.3188 77.6774C73.3008 77.7465 73.2918 77.8306 73.2918 77.9268V79.0628C73.2918 79.159 73.3008 79.2432 73.3188 79.3153C73.3368 79.3874 73.3699 79.4415 73.4209 79.4806C73.469 79.5197 73.5441 79.5407 73.6402 79.5407Z"
            fill="#CCCCCC"/>
        <path d="M74.7005 79.7962V77.1995H75.2231C75.3973 77.1995 75.5385 77.2236 75.6527 77.2686C75.7668 77.3137 75.8509 77.3888 75.905 77.491C75.959 77.5932 75.9861 77.7255 75.9861 77.8908C75.9861 77.9899 75.974 78.0831 75.953 78.1642C75.932 78.2454 75.8959 78.3145 75.8509 78.3716C75.8028 78.4287 75.7428 78.4708 75.6647 78.4948L76.0341 79.7962H75.6857L75.3463 78.579H75.0639V79.7962H74.7005ZM75.0639 78.3175H75.2021C75.3042 78.3175 75.3883 78.3055 75.4514 78.2784C75.5145 78.2514 75.5625 78.2093 75.5926 78.1462C75.6226 78.0831 75.6376 77.9989 75.6376 77.8877C75.6376 77.7375 75.6106 77.6263 75.5535 77.5602C75.4965 77.494 75.3883 77.458 75.2231 77.458H75.0639V78.3175Z"
            fill="#CCCCCC"/>
        <path d="M76.3646 79.7962V77.1995H76.9292C77.1215 77.1995 77.2747 77.2296 77.3858 77.2867C77.4969 77.3468 77.578 77.4339 77.6261 77.5511C77.6741 77.6684 77.6982 77.8156 77.6982 77.9899V78.9456C77.6982 79.129 77.6741 79.2853 77.6261 79.4115C77.578 79.5377 77.4999 79.6339 77.3918 79.697C77.2837 79.7631 77.1395 79.7962 76.9593 79.7962H76.3646ZM76.725 79.5377H76.9292C77.0614 79.5377 77.1545 79.5137 77.2116 79.4596C77.2657 79.4085 77.3017 79.3333 77.3137 79.2342C77.3257 79.135 77.3317 79.0178 77.3317 78.8795V78.038C77.3317 77.9028 77.3227 77.7946 77.3047 77.7104C77.2867 77.6263 77.2506 77.5662 77.1936 77.5271C77.1365 77.488 77.0464 77.47 76.9202 77.47H76.725V79.5377Z"
            fill="#CCCCCC"/>
        <path d="M67.3085 90.6967C67.1523 90.6967 67.0232 90.6667 66.918 90.6066C66.8129 90.5465 66.7348 90.4563 66.6807 90.3391C66.6267 90.2219 66.5966 90.0776 66.5906 89.9063L66.9961 89.8252C66.9991 89.9243 67.0111 90.0145 67.0322 90.0896C67.0532 90.1678 67.0832 90.2249 67.1253 90.267C67.1673 90.309 67.2214 90.3301 67.2905 90.3301C67.3686 90.3301 67.4226 90.306 67.4527 90.2609C67.4857 90.2159 67.5007 90.1558 67.5007 90.0866C67.5007 89.9724 67.4737 89.8793 67.4226 89.8071C67.3716 89.735 67.3025 89.6629 67.2184 89.5877L66.891 89.2992C66.7979 89.2211 66.7258 89.1309 66.6717 89.0347C66.6177 88.9386 66.5906 88.8184 66.5906 88.6741C66.5906 88.4697 66.6507 88.3104 66.7709 88.1992C66.891 88.088 67.0532 88.034 67.2604 88.034C67.3806 88.034 67.4827 88.052 67.5638 88.091C67.6449 88.1271 67.711 88.1812 67.7591 88.2473C67.8071 88.3134 67.8432 88.3886 67.8672 88.4727C67.8912 88.5569 67.9062 88.647 67.9122 88.7402L67.5097 88.8093C67.5067 88.7282 67.4977 88.6561 67.4827 88.5899C67.4677 88.5268 67.4437 88.4757 67.4106 88.4397C67.3746 88.4036 67.3235 88.3856 67.2544 88.3856C67.1854 88.3856 67.1313 88.4096 67.0922 88.4547C67.0562 88.4998 67.0352 88.5569 67.0352 88.626C67.0352 88.7132 67.0532 88.7853 67.0892 88.8424C67.1253 88.8995 67.1763 88.9566 67.2454 89.0167L67.5698 89.3022C67.678 89.3924 67.7681 89.4976 67.8432 89.6178C67.9182 89.738 67.9573 89.8853 67.9573 90.0536C67.9573 90.1768 67.9303 90.288 67.8762 90.3842C67.8221 90.4803 67.747 90.5555 67.6479 90.6096C67.5518 90.6697 67.4377 90.6967 67.3085 90.6967Z"
            fill="#E5E5E5"/>
        <path d="M68.2246 90.6607V88.067H68.6932V90.6607H68.2246Z"
            fill="#E5E5E5"/>
        <path d="M69.7414 90.6967C69.5702 90.6967 69.4351 90.6607 69.3359 90.5885C69.2368 90.5164 69.1647 90.4142 69.1197 90.279C69.0746 90.1467 69.0536 89.9874 69.0536 89.8071V88.9356C69.0536 88.7492 69.0746 88.5899 69.1167 88.4547C69.1587 88.3195 69.2338 88.2173 69.3419 88.1451C69.4501 88.073 69.5973 88.0369 69.7895 88.0369C69.9667 88.0369 70.1079 88.067 70.213 88.1271C70.3181 88.1872 70.3932 88.2744 70.4383 88.3856C70.4833 88.4968 70.5074 88.635 70.5074 88.7943V88.9295H70.0568V88.7823C70.0568 88.6981 70.0508 88.626 70.0388 88.5689C70.0268 88.5088 70.0027 88.4637 69.9697 88.4337C69.9337 88.4036 69.8766 88.3856 69.7985 88.3856C69.7144 88.3856 69.6543 88.4066 69.6183 88.4457C69.5822 88.4878 69.5582 88.5388 69.5492 88.605C69.5402 88.6711 69.5342 88.7432 69.5342 88.8244V89.9093C69.5342 89.9995 69.5402 90.0776 69.5552 90.1437C69.5702 90.2098 69.5973 90.2609 69.6393 90.297C69.6783 90.3331 69.7384 90.3511 69.8135 90.3511C69.8916 90.3511 69.9487 90.3331 69.9907 90.294C70.0298 90.2549 70.0598 90.2008 70.0748 90.1347C70.0898 90.0656 70.0989 89.9844 70.0989 89.8913V89.6478H69.8195V89.3503H70.5254V90.6667H70.222L70.186 90.4112C70.1529 90.4954 70.0989 90.5675 70.0298 90.6216C69.9547 90.6697 69.8616 90.6967 69.7414 90.6967Z"
            fill="#E5E5E5"/>
        <path d="M70.8828 90.6607V88.067H71.2132L71.844 89.5457V88.067H72.2344V90.6607H71.9221L71.2883 89.1099V90.6607H70.8828Z"
            fill="#E5E5E5"/>
        <path d="M73.4179 90.6607V88.067H73.8865V90.6607H73.4179Z"
            fill="#E5E5E5"/>
        <path d="M74.2859 90.6607V88.067H74.6163L75.2471 89.5457V88.067H75.6376V90.6607H75.3252L74.6914 89.1099V90.6607H74.2859Z"
            fill="#E5E5E5"/>
        <path d="M106.554 48.2365C106.554 48.2365 106.173 51.2359 106.317 51.6627C106.461 52.0925 107.317 53.8055 107.362 53.9468C107.41 54.091 106.362 54.9927 106.554 55.4224C106.743 55.8522 107.792 56.3751 107.792 56.3751C107.792 56.3751 110.36 59.3264 110.693 59.2784C111.026 59.2303 112.264 58.5631 112.264 58.5631L112.979 60.2281L120.064 57.2287L117.923 53.7064C117.923 53.7064 115.688 48.0442 113.595 46.235C111.501 44.4317 107.41 46.1929 106.554 48.2365Z"
            fill="white"
            stroke="#263238"
            stroke-miterlimit="10"
            stroke-linecap="round"
            stroke-linejoin="round"/>
        <path d="M110.69 59.2784L112.486 57.3459L112.261 58.5631L110.69 59.2784Z"
            fill="#263238"
            stroke="#263238"
            stroke-miterlimit="10"
            stroke-linecap="round"
            stroke-linejoin="round"/>
        <path d="M106.981 52.9971C106.981 52.9971 107.789 54.8063 107.314 55.0918C106.839 55.3774 105.887 53.6643 105.887 53.6643L110.405 50.8092"
            stroke="#263238"
            stroke-miterlimit="10"
            stroke-linecap="round"
            stroke-linejoin="round"/>
        <path d="M108.455 56.1858C108.455 56.1858 109.17 55.8522 108.885 54.9476"
            stroke="#263238"
            stroke-miterlimit="10"
            stroke-linecap="round"
            stroke-linejoin="round"/>
        <path d="M106.791 51.9031C106.791 51.9031 106.791 51.284 107.506 51.5695"
            stroke="#263238"
            stroke-miterlimit="10"
            stroke-linecap="round"
            stroke-linejoin="round"/>
        <path d="M107.506 53.2826L108.077 54.2804"
            stroke="#263238"
            stroke-miterlimit="10"
            stroke-linecap="round"
            stroke-linejoin="round"/>
        <path d="M106.981 46.1448C107.125 46.1929 106.933 44.1462 106.266 44.6691C105.599 45.1921 105.551 47.0975 105.551 47.0975C105.551 47.0975 104.695 46.0516 104.506 46.9082C104.316 47.7647 105.599 49.1923 106.077 49.1442C106.551 49.0961 108.548 47.2418 108.455 47.8128C108.359 48.3838 107.741 49.3846 108.122 49.5739C108.503 49.7633 109.453 49.3846 109.453 49.3846C109.453 49.3846 109.597 51.5275 110.167 51.4313C110.738 51.3351 111.168 50.4305 111.594 51.0015C112.021 51.5725 114.97 54.4757 115.163 54.4757C115.352 54.4757 117.92 53.7154 117.92 53.7154C117.92 53.7154 118.109 50.7641 118.253 48.8136C118.397 46.8631 117.253 44.2454 115.589 43.1995C113.925 42.1536 111.45 42.3911 110.264 43.1995C109.077 44.008 106.981 46.1448 106.981 46.1448Z"
            fill="#263238"
            stroke="#263238"
            stroke-miterlimit="10"
            stroke-linecap="round"
            stroke-linejoin="round"/>
        <path d="M110.453 52.3299C110.453 52.3299 110.071 49.616 111.023 50.0939C111.976 50.5687 112.736 53.0933 112.498 53.6643C112.261 54.2353 111.69 53.8536 111.69 53.8536"
            fill="white"/>
        <path d="M110.453 52.3299C110.453 52.3299 110.071 49.616 111.023 50.0939C111.976 50.5687 112.736 53.0933 112.498 53.6643C112.261 54.2353 111.69 53.8536 111.69 53.8536"
            stroke="#263238"
            stroke-miterlimit="10"
            stroke-linecap="round"
            stroke-linejoin="round"/>
        <path d="M112.081 60.0117L111.039 62.969C111.039 62.969 114.225 61.2289 117.295 60.186C120.365 59.1431 122.392 58.8516 122.392 58.8516L120.827 56.5314C120.83 56.5344 114.4 57.1716 112.081 60.0117Z"
            fill="#FF5F7C"
            stroke="#263238"
            stroke-miterlimit="10"
            stroke-linecap="round"
            stroke-linejoin="round"/>
        <path d="M95.756 66.9301L102.325 77.9599C102.373 78.041 102.472 78.0831 102.565 78.0591L108.732 76.5443C108.873 76.5083 108.942 76.349 108.87 76.2228L103.172 66.332C103.13 66.2599 103.052 66.2178 102.971 66.2238L95.9332 66.6025C95.768 66.6115 95.6719 66.7918 95.756 66.9301Z"
            fill="#263238"
            stroke="#263238"
            stroke-miterlimit="10"
            stroke-linecap="round"
            stroke-linejoin="round"/>
        <path d="M96.4829 67.3689L102.394 77.2927L108.104 75.8892L102.995 67.0172L96.4829 67.3689Z"
            fill="#878787"
            stroke="#263238"
            stroke-miterlimit="10"
            stroke-linecap="round"
            stroke-linejoin="round"/>
        <path d="M107.272 69.1721C107.272 69.1721 105.533 70.1008 104.896 70.3893C104.259 70.6778 103.911 70.9122 104.316 71.2578C104.722 71.6065 106.113 70.795 106.113 70.795L107.212 70.3322L107.272 69.1721Z"
            fill="white"
            stroke="#263238"
            stroke-miterlimit="10"
            stroke-linecap="round"
            stroke-linejoin="round"/>
        <path d="M121.404 131.507L121.798 134.521C121.798 134.521 121.404 135.177 120.161 135.309C118.917 135.441 118.001 135.636 118.001 135.636L118.343 132.706L121.404 131.507Z"
            fill="white"
            stroke="#263238"
            stroke-miterlimit="10"
            stroke-linecap="round"
            stroke-linejoin="round"/>
        <path d="M121.798 134.521L121.74 134.086C120.569 134.542 119.151 134.69 118.106 134.729L118.001 135.636C118.001 135.636 118.917 135.441 120.161 135.309C121.404 135.177 121.798 134.521 121.798 134.521Z"
            fill="white"
            stroke="#263238"
            stroke-miterlimit="10"
            stroke-linecap="round"
            stroke-linejoin="round"/>
        <path d="M112.498 130.263L109.092 132.36C109.092 132.36 107.587 132.754 106.734 132.82C105.884 132.886 105.884 133.803 106.275 134.131C106.668 134.458 107.969 135.014 109.615 135.375C112.889 136.096 117.604 135.835 117.998 135.636C118.391 135.441 118.719 135.113 118.785 134.849C118.851 134.587 118.785 132.03 118.785 132.03C118.785 132.03 113.808 131.444 112.498 130.263Z"
            fill="white"
            stroke="#263238"
            stroke-miterlimit="10"
            stroke-linecap="round"
            stroke-linejoin="round"/>
        <path d="M109.158 134.521C107.239 133.938 106.449 133.463 106.134 133.142C105.935 133.457 106.022 133.914 106.278 134.128C106.671 134.455 107.972 135.011 109.618 135.372C112.892 136.093 117.607 135.832 118.001 135.633C118.367 135.45 118.677 135.152 118.767 134.9C116.577 135.089 111.901 135.354 109.158 134.521Z"
            fill="white"
            stroke="#263238"
            stroke-miterlimit="10"
            stroke-linecap="round"
            stroke-linejoin="round"/>
        <path d="M123.185 88.7282C123.185 88.7282 123.185 91.959 122.11 93.6931C121.035 95.4272 119.539 96.984 119.539 97.2244C119.539 97.4649 118.103 108.651 118.103 109.252C118.103 109.85 118.043 111.584 118.403 112.483C118.761 113.381 120.137 119.065 120.975 124.15C121.813 129.235 121.452 130.491 121.452 130.491C121.452 130.491 121.81 131.39 121.81 131.627C121.81 131.868 121.629 132.526 121.629 132.526C121.629 132.526 120.671 132.826 119.776 132.826C118.878 132.826 118.34 132.706 118.34 132.706C118.34 132.706 118.28 131.747 118.461 131.27C118.641 130.792 118.521 129.475 118.521 129.175C118.521 128.874 116.247 113.378 116.247 112.182C116.247 110.986 116.187 98.3004 116.187 98.3004L115.649 89.5036C115.652 89.5066 118.761 89.3864 123.185 88.7282Z"
            fill="#FF5F7C"
            stroke="#263238"
            stroke-miterlimit="10"
            stroke-linecap="round"
            stroke-linejoin="round"/>
        <path d="M118.941 95.4903C118.941 95.4903 117.505 98.123 117.385 98.3635C117.265 98.6039 117.265 100.696 117.265 101.177C117.265 101.654 116.965 110.749 117.025 112.005C117.085 113.261 118.04 117.15 118.34 119.485C118.641 121.818 119.178 128.64 119.238 128.82C119.299 129 119.539 129.836 119.419 130.377C119.299 130.915 119.001 131.513 119.001 131.513C119.001 131.513 119.181 132.529 119.061 132.829C118.941 133.13 117.328 133.427 115.054 132.769C112.781 132.111 111.825 130.674 111.825 130.674C111.825 130.674 111.946 130.374 111.946 129.776C111.946 129.178 112.543 129.058 112.543 129.058L111.408 121.039C111.408 121.039 110.333 118.527 110.273 118.106C110.213 117.688 110.513 116.669 110.453 116.252C110.393 115.834 109.675 114.935 109.615 114.517C109.555 114.1 107.581 107.398 107.461 101.474C107.341 95.5504 107.566 90.0415 107.566 90.0415C107.566 90.0415 109.077 90.8259 113.742 90.5254C118.406 90.2249 120.26 90.1678 122.473 89.209"
            fill="#FF5F7C"/>
        <path d="M118.941 95.4903C118.941 95.4903 117.505 98.123 117.385 98.3635C117.265 98.6039 117.265 100.696 117.265 101.177C117.265 101.654 116.965 110.749 117.025 112.005C117.085 113.261 118.04 117.15 118.34 119.485C118.641 121.818 119.178 128.64 119.238 128.82C119.299 129 119.539 129.836 119.419 130.377C119.299 130.915 119.001 131.513 119.001 131.513C119.001 131.513 119.181 132.529 119.061 132.829C118.941 133.13 117.328 133.427 115.054 132.769C112.781 132.111 111.825 130.674 111.825 130.674C111.825 130.674 111.946 130.374 111.946 129.776C111.946 129.178 112.543 129.058 112.543 129.058L111.408 121.039C111.408 121.039 110.333 118.527 110.273 118.106C110.213 117.688 110.513 116.669 110.453 116.252C110.393 115.834 109.675 114.935 109.615 114.517C109.555 114.1 107.581 107.398 107.461 101.474C107.341 95.5504 107.566 90.0415 107.566 90.0415C107.566 90.0415 109.077 90.8259 113.742 90.5254C118.406 90.2249 120.26 90.1678 122.473 89.209"
            stroke="#263238"
            stroke-miterlimit="10"
            stroke-linecap="round"
            stroke-linejoin="round"/>
        <path d="M114.015 125.361L114.397 129.349C114.397 129.349 113.874 129.677 114.069 130.332C114.264 130.987 114.397 131.381 114.397 131.381"
            stroke="#263238"
            stroke-miterlimit="10"
            stroke-linecap="round"
            stroke-linejoin="round"/>
        <path d="M110.585 105.372C110.63 105.661 110.678 105.943 110.732 106.214C111.78 111.587 112.958 115.65 113.024 115.846C113.09 116.041 112.237 116.762 112.564 117.156C112.892 117.55 113.285 117.745 113.285 117.745L113.886 124.014"
            stroke="#263238"
            stroke-miterlimit="10"
            stroke-linecap="round"
            stroke-linejoin="round"/>
        <path d="M110.207 91.6705C110.207 91.6705 109.825 98.3394 110.363 103.635"
            stroke="#263238"
            stroke-miterlimit="10"
            stroke-linecap="round"
            stroke-linejoin="round"/>
        <path d="M108.702 91.5382C108.702 91.5382 108.506 93.8975 109.816 95.0756"
            stroke="#263238"
            stroke-miterlimit="10"
            stroke-linecap="round"
            stroke-linejoin="round"/>
        <path d="M118.722 91.8658C117.217 92.521 113.94 92.5871 113.94 92.5871L114.334 93.5699C114.334 93.5699 116.625 93.4376 117.541 93.11"
            stroke="#263238"
            stroke-miterlimit="10"
            stroke-linecap="round"
            stroke-linejoin="round"/>
        <path d="M107.563 90.0385C107.563 90.0385 108.374 91.5443 114.688 91.1986C121.002 90.85 123.435 89.8071 123.495 89.2872C123.552 88.7643 123.377 87.5471 123.377 87.5471C123.377 87.5471 111.444 88.4156 107.563 90.0385Z"
            fill="#C2C2C2"
            stroke="#263238"
            stroke-miterlimit="10"
            stroke-linecap="round"
            stroke-linejoin="round"/>
        <path d="M111.039 62.969C111.039 62.969 107.503 64.5919 107.446 65.1148C107.389 65.6378 105.533 79.6639 105.533 79.6639L102.751 76.4181C102.751 76.4181 102.809 75.258 102.634 74.7952C102.46 74.3324 102.403 73.9837 101.998 73.8094C101.592 73.6351 100.258 73.2865 99.913 72.998C99.5646 72.7095 98.5794 71.7808 98.3481 72.1294C98.1169 72.478 97.6543 73.0581 97.7684 73.4638C97.8856 73.8695 98.3481 74.681 98.3481 74.9124C98.3481 75.1438 98.3481 76.8839 99.102 77.6954C99.856 78.5069 100.955 78.8555 100.955 78.8555C100.955 78.8555 102.751 83.61 103.388 84.5357C104.025 85.4643 106.689 87.6072 106.689 87.6072C106.689 87.6072 106.052 89.1129 106.227 89.2301C106.401 89.3473 107.212 90.5645 107.443 90.5645C107.674 90.5645 114.628 89.4044 115.147 89.3473C115.67 89.2902 120.881 89.3473 121.287 89.173C121.692 88.9987 123.026 88.4186 123.314 88.1872C123.603 87.9558 124.068 87.5501 123.837 86.6214C123.606 85.6927 123.374 79.144 123.374 78.564C123.374 77.9839 124.534 73.4037 125.053 71.6065C125.573 69.8093 126.558 64.5348 126.618 63.6662C126.675 62.7977 125.982 60.769 125.75 60.6518C125.519 60.5346 122.389 58.8546 122.389 58.8546C122.389 58.8546 117.238 59.2603 111.039 62.969Z"
            fill="#C2C2C2"
            stroke="#263238"
            stroke-miterlimit="10"
            stroke-linecap="round"
            stroke-linejoin="round"/>
        <path d="M106.695 87.6042C106.695 87.6042 108.723 87.2555 109.071 86.967C109.42 86.6785 112.489 77.6924 112.606 77.1694C112.724 76.6465 112.895 70.3292 112.895 70.3292"
            stroke="#263238"
            stroke-miterlimit="10"
            stroke-linecap="round"
            stroke-linejoin="round"/>
        <path d="M112.835 74.2723L113.82 70.7379"
            stroke="#263238"
            stroke-miterlimit="10"
            stroke-linecap="round"
            stroke-linejoin="round"/>
        <path d="M105.305 83.1412C105.13 82.1554 105.536 79.6639 105.536 79.6639C105.536 79.6639 105.941 82.0983 106.695 83.0841"
            stroke="#263238"
            stroke-miterlimit="10"
            stroke-linecap="round"
            stroke-linejoin="round"/>
        <path d="M102.754 76.4181C102.754 76.4181 102.812 75.258 102.637 74.7952C102.463 74.3324 102.406 73.9837 102.001 73.8094C101.595 73.6351 100.261 73.2865 99.916 72.998C99.5676 72.7094 98.5824 71.7808 98.3511 72.1294C98.1198 72.478 97.6573 73.0581 97.7714 73.4638C97.8886 73.8695 98.3511 74.681 98.3511 74.9124C98.3511 75.1438 98.3511 76.8839 99.105 77.6954C99.859 78.5068 100.958 78.8555 100.958 78.8555C100.958 78.8555 101.057 79.123 101.22 79.5377C101.571 78.6842 102.289 77.6353 103.689 77.5121L102.754 76.4181Z"
            fill="white"
            stroke="#263238"
            stroke-miterlimit="10"
            stroke-linecap="round"
            stroke-linejoin="round"/>
        <path d="M101.826 80.6497C101.826 80.6497 102.232 79.2011 103.911 78.6211"
            stroke="#263238"
            stroke-miterlimit="10"
            stroke-linecap="round"
            stroke-linejoin="round"/>
        <path d="M115.154 89.3443L121.005 87.6042"
            stroke="#263238"
            stroke-miterlimit="10"
            stroke-linecap="round"
            stroke-linejoin="round"/>
        <path d="M122.104 73.9657C122.104 73.9657 118.4 77.9719 115.397 80.1748"
            stroke="#263238"
            stroke-miterlimit="10"
            stroke-linecap="round"
            stroke-linejoin="round"/>
        <path d="M120.2 76.9711C120.2 76.9711 117.397 79.7751 116.196 80.6768"
            stroke="#263238"
            stroke-miterlimit="10"
            stroke-linecap="round"
            stroke-linejoin="round"/>
    </g>
    <defs>
        <clipPath id="clip0_1_3993">
            <rect width="142"
                height="136"
                fill="white"/>
        </clipPath>
    </defs>
</svg>
