<svg width="142"
    height="145"
    viewBox="0 0 142 145"
    fill="none"
    xmlns="http://www.w3.org/2000/svg">
    <g clip-path="url(#clip0_1_4706)">
        <path d="M139.765 74.3494C136.39 86.9881 128.374 101.087 115.691 106.252C96.5305 114.059 95.697 130.24 60.2293 132.153C54.698 132.451 49.5328 132.163 44.7371 131.374C42.1577 130.949 39.6888 130.376 37.3272 129.666C15.89 123.263 3.36239 105.834 0.625123 86.6015C-2.98036 61.3051 13.5316 47.4973 24.3355 39.3038C35.1393 31.1072 46.3536 2.30024 81.2087 0.14257C86.5222 -0.183774 91.8768 0.034845 97.1303 0.934667C109.121 2.98778 121.677 8.86831 129.561 18.4685C130.151 19.1909 130.723 19.9323 131.272 20.6896C142.016 35.5398 144.368 57.1165 139.765 74.3494Z"
            fill="#FFEBEF"/>
        <path opacity="0.3"
            d="M18.8988 26.2121V24.4156C18.8988 20.8702 16.5499 19.6155 14.1473 19.6155C11.7005 19.6155 9.44941 21.4215 9.44941 24.4156V26.2121H8.78009V36.1545H19.5145V26.2121H18.8988ZM14.4662 31.6744V33.474H13.4495V31.6744C12.9539 31.4716 12.6034 30.9868 12.6034 30.4165C12.6034 29.6656 13.2096 29.0573 13.9578 29.0573C14.7061 29.0573 15.3123 29.6656 15.3123 30.4165C15.3123 30.9868 14.9618 31.4748 14.4662 31.6744ZM17.4118 26.2121H10.8859V24.4156C10.8859 22.6096 12.3508 21.1395 14.1504 21.1395C15.95 21.1395 17.4149 22.3751 17.4149 24.4156V26.2121H17.4118Z"
            stroke="black"
            stroke-miterlimit="10"/>
        <path opacity="0.3"
            d="M56.7659 16.0257H26.3466C23.9977 16.0257 22.0907 14.1152 22.0907 11.7547C22.0907 9.39744 23.9945 7.48373 26.3466 7.48373H56.7659C59.1149 7.48373 61.0218 9.39427 61.0218 11.7547C61.0218 14.112 59.118 16.0257 56.7659 16.0257Z"
            stroke="black"
            stroke-miterlimit="10"/>
        <g opacity="0.3">
            <path d="M30.1857 11.3587L31.0729 12.3409L30.6467 12.6609L29.9868 11.4949L29.3333 12.6609L28.9071 12.3409L29.7847 11.3587L28.4872 11.0894L28.645 10.5761L29.8668 11.1147L29.7153 9.78716H30.252L30.1099 11.1147L31.3318 10.5856L31.4896 11.0989L30.1857 11.3587Z"
                fill="black"/>
            <path d="M33.4913 11.3587L34.3784 12.3409L33.9522 12.6609L33.2923 11.4949L32.6388 12.6609L32.2126 12.3409L33.0903 11.3587L31.7927 11.0894L31.9506 10.5761L33.1724 11.1147L33.0208 9.78716H33.5576L33.4155 11.1147L34.6373 10.5856L34.7952 11.0989L33.4913 11.3587Z"
                fill="black"/>
            <path d="M36.7968 11.3587L37.684 12.3409L37.2578 12.6609L36.5979 11.4949L35.9444 12.6609L35.5182 12.3409L36.3959 11.3587L35.0983 11.0894L35.2561 10.5761L36.478 11.1147L36.3264 9.78716H36.8631L36.7211 11.1147L37.9429 10.5856L38.1007 11.0989L36.7968 11.3587Z"
                fill="black"/>
            <path d="M40.1024 11.3587L40.9895 12.3409L40.5633 12.6609L39.9035 11.4949L39.2499 12.6609L38.8237 12.3409L39.7014 11.3587L38.4007 11.0894L38.5585 10.5761L39.7803 11.1147L39.6288 9.78716H40.1655L40.0235 11.1147L41.2453 10.5856L41.4031 11.0989L40.1024 11.3587Z"
                fill="black"/>
            <path d="M43.4048 11.3587L44.2919 12.3409L43.8657 12.6609L43.2059 11.4949L42.5523 12.6609L42.1261 12.3409L43.0038 11.3587L41.7062 11.0894L41.8641 10.5761L43.0859 11.1147L42.9375 9.78716H43.4742L43.3322 11.1147L44.554 10.5856L44.7118 11.0989L43.4048 11.3587Z"
                fill="black"/>
            <path d="M46.7103 11.3587L47.5975 12.3409L47.1713 12.6609L46.5114 11.4949L45.8579 12.6609L45.4317 12.3409L46.3094 11.3587L45.0118 11.0894L45.1696 10.5761L46.3915 11.1147L46.2399 9.78716H46.7766L46.6346 11.1147L47.8564 10.5856L48.0142 11.0989L46.7103 11.3587Z"
                fill="black"/>
            <path d="M50.0159 11.3587L50.903 12.3409L50.4768 12.6609L49.817 11.4949L49.1634 12.6609L48.7372 12.3409L49.6149 11.3587L48.3173 11.0894L48.4752 10.5761L49.697 11.1147L49.5455 9.78716H50.0822L49.9401 11.1147L51.1619 10.5856L51.3198 11.0989L50.0159 11.3587Z"
                fill="black"/>
            <path d="M53.3214 11.3587L54.2086 12.3409L53.7824 12.6609L53.1225 11.4949L52.469 12.6609L52.0428 12.3409L52.9205 11.3587L51.6197 11.0894L51.7776 10.5761L52.9994 11.1147L52.8479 9.78716H53.3846L53.2425 11.1147L54.4643 10.5856L54.6222 11.0989L53.3214 11.3587Z"
                fill="black"/>
        </g>
        <path opacity="0.3"
            d="M17.4307 65.725C17.1497 65.2371 16.7582 64.9614 16.3446 64.9614H15.628V64.3183C16.1394 63.7131 16.4709 62.7974 16.4709 61.8564C16.4709 60.2405 15.5017 58.9288 14.3051 58.9288C13.1085 58.9288 12.1393 60.2374 12.1393 61.8564C12.1393 62.7626 12.4424 63.6466 12.9223 64.2486V64.9614H11.9657C11.5426 64.9614 11.1416 65.2371 10.8543 65.725L9.55673 67.9175H13.9452H14.4251H18.6936L17.4307 65.725Z"
            stroke="black"
            stroke-miterlimit="10"/>
        <path opacity="0.3"
            d="M20.4655 66.6693C21.9016 63.1902 20.2553 59.2016 16.7885 57.7605C13.3217 56.3193 9.34718 57.9715 7.91116 61.4506C6.47513 64.9297 8.12139 68.9183 11.5882 70.3594C15.055 71.8006 19.0295 70.1485 20.4655 66.6693Z"
            stroke="black"
            stroke-miterlimit="10"/>
        <g opacity="0.2">
            <path d="M64.984 93.705C53.2236 87.1116 45.2517 74.4951 45.2517 60.0441C45.2517 38.8001 62.4741 21.5133 83.646 21.5133C86.2886 21.5133 88.868 21.789 91.3653 22.3023L90.3866 25.5974L101.298 22.993L93.5943 14.8154L92.6598 17.9616C89.752 17.3342 86.7401 17.0016 83.6492 17.0016C59.9988 17.0016 40.7559 36.3097 40.7559 60.0473C40.7559 76.675 50.199 91.126 63.9832 98.2929L61.268 93.7811L64.984 93.705Z"
                fill="black"/>
            <path d="M99.4729 20.0369L102.842 23.614L98.7026 24.6025C112.408 30.4894 122.037 44.1578 122.037 60.0441C122.037 81.2881 104.815 98.5748 83.6429 98.5748C79.7785 98.5748 76.0467 97.995 72.5265 96.9241L73.8588 94.5003L62.6477 94.7189L68.4411 104.354L70.307 100.957C74.506 102.339 78.9861 103.09 83.6397 103.09C107.29 103.09 126.533 83.7785 126.533 60.0441C126.536 41.9146 115.312 26.3705 99.4729 20.0369Z"
                fill="black"/>
        </g>
        <path d="M134.347 13.0633L127.117 11.6787L127.104 11.704C126.745 12.4359 126.154 12.8446 125.611 12.7401L125.299 12.6799C124.752 12.5753 124.355 11.9797 124.288 11.1654L124.285 11.1369L117.055 9.7523C115.041 9.36576 113.099 10.6933 112.714 12.7116L103.337 60.4623C103.116 61.622 103.874 62.7404 105.03 62.9622L125.428 66.8688C126.584 67.0906 127.698 66.3302 127.919 65.1705L137.296 17.4198C137.681 15.3984 136.361 13.4498 134.347 13.0633Z"
            fill="#FF375B"
            stroke="#263238"
            stroke-miterlimit="10"
            stroke-linecap="round"
            stroke-linejoin="round"/>
        <path d="M137.094 18.4844L137.296 17.4198C137.681 15.3984 136.358 13.4498 134.347 13.0633L127.117 11.6787L127.104 11.704C126.745 12.4359 126.154 12.8446 125.611 12.7401L125.299 12.6799C124.752 12.5753 124.355 11.9797 124.288 11.1654L124.285 11.1369L117.055 9.7523C115.041 9.36576 113.099 10.6933 112.714 12.7116L112.512 13.7762L137.094 18.4844Z"
            fill="white"
            stroke="#263238"
            stroke-miterlimit="10"
            stroke-linecap="round"
            stroke-linejoin="round"/>
        <path d="M135.512 33.775L136.393 29.1397L135.976 29.0604L138.606 16.802C138.991 14.7805 137.668 12.832 135.657 12.4454L116.073 8.69406C114.059 8.30752 112.117 9.63507 111.732 11.6533L102.093 60.7823C101.708 62.8038 103.031 64.7523 105.042 65.1389L124.626 68.8902C126.64 69.2768 128.582 67.9492 128.967 65.931L134.347 37.6468L134.764 37.726L135.285 34.9853L134.868 34.9061L135.098 33.6958L135.512 33.775ZM128.314 63.1016C127.929 65.123 125.987 66.4474 123.973 66.0609L106.681 62.7499C104.666 62.3634 103.347 60.4148 103.732 58.3934L112.717 12.7116C113.102 10.6901 115.044 9.36576 117.058 9.7523L124.288 11.1369L124.291 11.1654C124.358 11.9797 124.756 12.5753 125.302 12.6799L125.614 12.7401C126.16 12.8446 126.748 12.4359 127.108 11.704L127.12 11.6787L134.35 13.0633C136.364 13.4498 137.684 15.3984 137.299 17.4198L128.314 63.1016Z"
            fill="#707070"
            stroke="#263238"
            stroke-miterlimit="10"
            stroke-linecap="round"
            stroke-linejoin="round"/>
        <path d="M134.918 12.8288L116.613 9.32457C114.479 8.91585 112.42 10.3194 112.013 12.4613L102.649 60.1487C102.242 62.2905 103.64 64.3563 105.775 64.765L124.077 68.2661C126.211 68.6748 128.269 67.2712 128.677 65.1294L138.041 17.442C138.451 15.3033 137.053 13.2375 134.918 12.8288ZM128.314 63.1016C127.928 65.123 125.987 66.4474 123.973 66.0609L106.681 62.7499C104.666 62.3634 103.347 60.4148 103.732 58.3934L112.717 12.7116C113.102 10.6901 115.044 9.36576 117.058 9.7523L124.288 11.1369L124.291 11.1654C124.358 11.9797 124.756 12.5753 125.302 12.6799L125.614 12.7401C126.16 12.8446 126.748 12.4359 127.108 11.704L127.12 11.6787L134.35 13.0633C136.364 13.4498 137.684 15.3984 137.299 17.4198L128.314 63.1016Z"
            fill="#263238"
            stroke="#263238"
            stroke-miterlimit="10"
            stroke-linecap="round"
            stroke-linejoin="round"/>
        <path d="M125.936 11.6343C125.971 11.4442 125.848 11.2605 125.658 11.2256C125.469 11.1908 125.286 11.3143 125.251 11.5044C125.216 11.6945 125.34 11.8783 125.529 11.9131C125.718 11.948 125.898 11.8244 125.936 11.6343Z"
            fill="#707070"/>
        <path d="M115.312 10.9626C115.246 11.3111 114.833 11.3618 114.782 11.6248L114.779 11.6438L115.158 11.7167L115.136 11.8339L114.63 11.7389L114.649 11.6407C114.719 11.27 115.123 11.27 115.186 10.9468C115.208 10.8296 115.18 10.7567 115.085 10.7408C114.99 10.7218 114.937 10.782 114.918 10.8834L114.899 10.9848L114.779 10.9626L114.798 10.8676C114.833 10.6901 114.934 10.5888 115.11 10.6236C115.287 10.6553 115.344 10.7884 115.312 10.9626Z"
            fill="#263238"/>
        <path d="M115.941 11.083L115.934 11.1115C115.912 11.2288 115.849 11.3048 115.751 11.3207C115.84 11.3745 115.868 11.4696 115.846 11.5868L115.83 11.6755C115.795 11.8529 115.691 11.9512 115.515 11.9163C115.338 11.8815 115.278 11.7516 115.312 11.5741L115.328 11.4949L115.448 11.5171L115.432 11.6058C115.413 11.7104 115.445 11.7801 115.537 11.7991C115.631 11.8181 115.682 11.7642 115.704 11.647L115.72 11.5583C115.742 11.4442 115.704 11.3809 115.609 11.3587L115.54 11.346L115.562 11.2319L115.638 11.2478C115.723 11.2605 115.786 11.2161 115.805 11.1147L115.814 11.0609C115.837 10.9436 115.808 10.8739 115.713 10.8549C115.622 10.8359 115.568 10.8929 115.546 10.9975L115.533 11.0577L115.413 11.0355L115.423 10.9816C115.458 10.8042 115.559 10.706 115.736 10.7408C115.912 10.7757 115.972 10.9056 115.941 11.083Z"
            fill="#263238"/>
        <path d="M116.171 11.2161L116.14 11.3745L116.016 11.3523L116.048 11.1939L116.171 11.2161ZM116.051 11.8434L116.02 12.0019L115.897 11.9797L115.928 11.8213L116.051 11.8434Z"
            fill="#263238"/>
        <path d="M116.411 11.3713C116.458 11.3143 116.522 11.2953 116.601 11.308C116.749 11.3365 116.793 11.4569 116.762 11.6217L116.717 11.8466C116.683 12.024 116.578 12.1223 116.402 12.0874C116.225 12.0526 116.165 11.9226 116.2 11.7452L116.215 11.6692L116.335 11.6914L116.32 11.7769C116.301 11.8815 116.332 11.9512 116.424 11.9702C116.515 11.9892 116.569 11.9322 116.591 11.8308L116.632 11.6058C116.651 11.5013 116.62 11.4315 116.528 11.4125C116.458 11.3999 116.402 11.4284 116.373 11.5108L116.367 11.5361L116.247 11.5139L116.399 10.8802L116.85 10.9658L116.828 11.0799L116.49 11.0165L116.411 11.3713Z"
            fill="#263238"/>
        <path d="M117.469 11.3745L117.466 11.3967L117.346 11.3745L117.352 11.346C117.371 11.2415 117.339 11.1717 117.248 11.1559C117.15 11.1369 117.096 11.1908 117.074 11.3143L117.024 11.5741C117.071 11.5013 117.14 11.4696 117.232 11.4854C117.38 11.5139 117.425 11.6343 117.393 11.7991L117.358 11.9733C117.324 12.1508 117.216 12.249 117.039 12.2141C116.863 12.1793 116.796 12.0494 116.831 11.872L116.942 11.2826C116.976 11.0989 117.08 11.0007 117.264 11.0355C117.444 11.0704 117.504 11.1971 117.469 11.3745ZM116.992 11.7294L116.96 11.9036C116.942 12.0082 116.97 12.0779 117.065 12.0969C117.156 12.1159 117.213 12.0589 117.232 11.9575L117.264 11.7832C117.283 11.6787 117.251 11.609 117.159 11.59C117.068 11.571 117.011 11.6248 116.992 11.7294Z"
            fill="#263238"/>
        <path d="M130.01 13.8247L129.684 13.7623L129.529 14.5746L129.855 14.637L130.01 13.8247Z"
            fill="#263238"/>
        <path d="M130.468 13.7451L130.142 13.6828L129.956 14.66L130.282 14.7224L130.468 13.7451Z"
            fill="#263238"/>
        <path d="M130.924 13.7116L130.598 13.6493L130.391 14.7417L130.716 14.804L130.924 13.7116Z"
            fill="#263238"/>
        <path d="M131.394 13.5932L131.069 13.5309L130.823 14.8256L131.148 14.888L131.394 13.5932Z"
            fill="#263238"/>
        <path d="M135.162 15.6328L133.217 15.259L133.444 14.0645L135.389 14.4383L135.162 15.6328ZM133.346 15.1734L135.076 15.5061L135.263 14.5302L133.532 14.1975L133.346 15.1734Z"
            fill="#263238"/>
        <path d="M134.702 14.5386L133.676 14.342L133.535 15.0828L134.561 15.2793L134.702 14.5386Z"
            fill="#263238"/>
        <path d="M135.481 14.9321L135.236 14.8852L135.183 15.1653L135.428 15.2122L135.481 14.9321Z"
            fill="#263238"/>
        <path d="M132.554 14.8661C132.541 14.8629 132.528 14.8566 132.519 14.8502C132.169 14.5397 131.865 14.7077 131.853 14.714C131.818 14.733 131.774 14.7235 131.752 14.6886C131.73 14.6538 131.742 14.6094 131.777 14.5873C131.793 14.5778 132.184 14.3528 132.617 14.7393C132.648 14.7679 132.652 14.8122 132.623 14.8439C132.604 14.8629 132.576 14.8692 132.554 14.8661Z"
            fill="#263238"/>
        <path d="M132.746 14.6475C132.734 14.6443 132.721 14.6379 132.712 14.6316C132.203 14.1817 131.755 14.4383 131.752 14.4383C131.717 14.4605 131.673 14.4478 131.651 14.413C131.629 14.3781 131.641 14.3306 131.676 14.3116C131.682 14.3084 132.222 13.9979 132.809 14.5207C132.841 14.5492 132.844 14.5936 132.816 14.6253C132.797 14.6443 132.772 14.6538 132.746 14.6475Z"
            fill="#263238"/>
        <path d="M132.933 14.3908C132.92 14.3876 132.907 14.3813 132.898 14.375C132.254 13.8047 131.695 14.1183 131.673 14.131C131.638 14.15 131.591 14.1405 131.572 14.1057C131.55 14.0708 131.562 14.0265 131.597 14.0043C131.603 14.0011 132.27 13.6177 132.996 14.2641C133.027 14.2926 133.03 14.337 133.002 14.3686C132.983 14.3876 132.958 14.394 132.933 14.3908Z"
            fill="#263238"/>
        <path d="M132.311 14.9453C132.292 15.0467 132.194 15.1132 132.093 15.0942C131.992 15.0752 131.925 14.977 131.944 14.8756C131.963 14.7742 132.061 14.7077 132.162 14.7267C132.263 14.7457 132.33 14.8439 132.311 14.9453Z"
            fill="#263238"/>
        <path d="M127.325 49.4237L110.192 46.1412C109.276 45.967 108.676 45.0798 108.853 44.1642L111.596 29.7321C111.77 28.8133 112.654 28.2113 113.567 28.3888L130.701 31.6712C131.616 31.8455 132.213 32.7326 132.039 33.6483L129.296 48.0803C129.122 48.9959 128.241 49.5979 127.325 49.4237Z"
            fill="white"
            stroke="#263238"
            stroke-miterlimit="10"/>
        <path d="M116.733 26.2311L116.512 24.5392L116.799 24.593L116.954 25.8857L117.576 24.7388L117.838 24.7895L117.008 26.2818L116.837 27.1721L116.566 27.1214L116.733 26.2311Z"
            fill="#263238"/>
        <path d="M117.848 25.4136C117.92 25.0334 118.154 24.8243 118.533 24.8972C118.915 24.9701 119.054 25.252 118.984 25.6291L118.741 26.9123C118.669 27.2893 118.435 27.5016 118.053 27.4287C117.674 27.3559 117.535 27.0707 117.608 26.6968L117.848 25.4136ZM117.873 26.7634C117.829 26.9915 117.901 27.1404 118.097 27.1784C118.299 27.2164 118.416 27.1024 118.457 26.8774L118.706 25.5657C118.747 25.3408 118.681 25.1887 118.482 25.1507C118.283 25.1126 118.163 25.2299 118.119 25.4517L117.873 26.7634Z"
            fill="#263238"/>
        <path d="M119.256 27.0295C119.215 27.2545 119.275 27.4034 119.477 27.4446C119.676 27.4826 119.789 27.3654 119.83 27.1404L120.19 25.2425L120.449 25.2932L120.092 27.1753C120.02 27.5523 119.799 27.7709 119.417 27.698C119.038 27.6252 118.915 27.34 118.984 26.9661L119.341 25.0841L119.613 25.1348L119.256 27.0295Z"
            fill="#263238"/>
        <path d="M121.276 25.4485C121.665 25.5245 121.791 25.7526 121.718 26.1202L121.68 26.323C121.63 26.5954 121.5 26.7475 121.276 26.776C121.491 26.8869 121.538 27.0865 121.488 27.3527L121.415 27.7392C121.393 27.8501 121.377 27.9515 121.409 28.0466L121.131 27.9927C121.112 27.9166 121.112 27.8501 121.144 27.6822L121.216 27.2925C121.27 27.0137 121.156 26.8996 120.926 26.8552L120.73 26.8172L120.528 27.8786L120.253 27.8248L120.727 25.3439L121.276 25.4485ZM120.983 26.6081C121.201 26.6493 121.346 26.6049 121.396 26.3356L121.441 26.098C121.482 25.873 121.425 25.7431 121.22 25.7019L120.951 25.6513L120.777 26.5701L120.983 26.6081Z"
            fill="#263238"/>
        <path d="M123.644 26.5257L123.603 26.7507L123.341 26.7L123.385 26.4624C123.426 26.2406 123.366 26.0885 123.164 26.0473C122.965 26.0093 122.849 26.1265 122.808 26.3515L122.558 27.6632C122.517 27.8881 122.583 28.0402 122.779 28.0782C122.981 28.1163 123.095 27.999 123.136 27.7741L123.196 27.4509L123.458 27.5016L123.398 27.8089C123.325 28.186 123.101 28.3982 122.722 28.3254C122.343 28.2525 122.214 27.9705 122.287 27.5935L122.53 26.3103C122.602 25.9332 122.827 25.721 123.202 25.7938C123.587 25.8667 123.717 26.1487 123.644 26.5257Z"
            fill="#263238"/>
        <path d="M123.875 26.5669C123.947 26.1867 124.181 25.9776 124.56 26.0505C124.942 26.1233 125.084 26.4053 125.011 26.7824L124.768 28.0656C124.696 28.4426 124.462 28.6549 124.08 28.582C123.701 28.5091 123.562 28.224 123.635 27.8501L123.875 26.5669ZM123.9 27.9198C123.856 28.1479 123.928 28.2969 124.124 28.3349C124.326 28.3729 124.443 28.2588 124.487 28.0339L124.737 26.7222C124.778 26.4972 124.711 26.3451 124.512 26.3071C124.314 26.2691 124.194 26.3863 124.153 26.6081L123.9 27.9198Z"
            fill="#263238"/>
        <path d="M125.965 26.3483C126.35 26.4212 126.483 26.6905 126.41 27.0739L126.173 28.3254C126.101 28.7056 125.879 28.9052 125.494 28.8323L124.913 28.7214L125.387 26.2406L125.965 26.3483ZM125.535 28.5789C125.734 28.6169 125.851 28.5123 125.895 28.2842L126.138 27.0073C126.183 26.7792 126.11 26.6366 125.908 26.5986L125.611 26.5416L125.235 28.5218L125.535 28.5789Z"
            fill="#263238"/>
        <path d="M127.455 27.7741L127.408 28.0212L126.805 27.904L126.637 28.788L127.379 28.9305L127.332 29.1808L126.315 28.9844L126.789 26.5036L127.805 26.7L127.758 26.9503L127.016 26.8077L126.855 27.6568L127.455 27.7741Z"
            fill="#263238"/>
        <path d="M114.833 36.2875C115.028 36.0626 115.287 35.9707 115.6 36.0309C116.2 36.145 116.383 36.6392 116.256 37.3078L116.083 38.2234C115.947 38.9395 115.518 39.3419 114.804 39.2056C114.091 39.0694 113.848 38.5371 113.983 37.821L114.043 37.5074L114.529 37.5993L114.463 37.9478C114.384 38.3692 114.507 38.6575 114.88 38.7272C115.252 38.8001 115.473 38.5783 115.556 38.1569L115.729 37.2476C115.808 36.8262 115.685 36.5378 115.312 36.4681C115.025 36.4143 114.801 36.5378 114.69 36.8705L114.672 36.9782L114.185 36.8864L114.807 34.3073L116.648 34.659L116.56 35.1279L115.186 34.8649L114.833 36.2875Z"
            fill="#263238"/>
        <path d="M119.136 36.3002L119.12 36.3858L118.634 36.2939L118.656 36.1735C118.735 35.7521 118.609 35.4701 118.23 35.3972C117.835 35.3212 117.614 35.543 117.519 36.0436L117.32 37.0955C117.51 36.7976 117.797 36.6677 118.17 36.7374C118.77 36.8515 118.953 37.3394 118.826 38.0143L118.691 38.724C118.555 39.4401 118.113 39.8393 117.399 39.7031C116.68 39.5636 116.414 39.0282 116.55 38.3121L117.005 35.9232C117.147 35.1818 117.567 34.7825 118.309 34.9251C119.025 35.0677 119.272 35.5842 119.136 36.3002ZM117.194 37.7482L117.062 38.4515C116.983 38.8729 117.106 39.1613 117.488 39.2341C117.86 39.307 118.091 39.0852 118.17 38.6638L118.302 37.9604C118.381 37.539 118.252 37.2507 117.876 37.1778C117.497 37.105 117.276 37.3268 117.194 37.7482Z"
            fill="#263238"/>
        <path d="M121.728 36.7976L121.712 36.8832L121.226 36.7913L121.248 36.6709C121.327 36.2495 121.201 35.9675 120.822 35.8947C120.427 35.8186 120.206 36.0404 120.111 36.541L119.912 37.5929C120.102 37.2951 120.389 37.1652 120.762 37.2349C121.362 37.3489 121.545 37.8369 121.418 38.5117L121.283 39.2215C121.147 39.9375 120.705 40.3367 119.991 40.2005C119.272 40.0611 119.006 39.5256 119.142 38.8096L119.597 36.4206C119.739 35.6792 120.159 35.28 120.901 35.4226C121.617 35.562 121.864 36.0816 121.728 36.7976ZM119.789 38.2424L119.657 38.9458C119.578 39.3672 119.701 39.6555 120.083 39.7284C120.455 39.8013 120.686 39.5795 120.765 39.1581L120.897 38.4547C120.976 38.0333 120.847 37.745 120.471 37.6721C120.089 37.5992 119.868 37.821 119.789 38.2424Z"
            fill="#263238"/>
        <path d="M124.32 37.3014L123.865 39.6904C123.723 40.4318 123.3 40.8373 122.555 40.6948C121.841 40.5585 121.589 40.0326 121.725 39.3165L121.74 39.231L122.227 39.3229L122.205 39.4432C122.126 39.8646 122.258 40.1466 122.631 40.2195C123.032 40.2955 123.253 40.0738 123.347 39.5795L123.546 38.5276C123.36 38.8254 123.073 38.949 122.7 38.8793C122.1 38.7652 121.914 38.2836 122.044 37.6088L122.179 36.8927C122.315 36.1766 122.751 35.7806 123.471 35.92C124.19 36.0562 124.456 36.5854 124.32 37.3014ZM122.7 36.9624L122.568 37.6658C122.489 38.0872 122.618 38.3755 122.994 38.4484C123.373 38.5212 123.597 38.2995 123.676 37.8781L123.808 37.1747C123.89 36.747 123.764 36.465 123.382 36.3921C123.006 36.3224 122.782 36.5347 122.7 36.9624Z"
            fill="#263238"/>
        <path d="M126.966 37.7862L126.937 37.9319C126.846 38.4072 126.615 38.724 126.22 38.7937C126.577 39.0219 126.656 39.4179 126.565 39.8868L126.498 40.2354C126.359 40.9577 125.902 41.3348 125.175 41.1954C124.449 41.056 124.162 40.5363 124.298 39.814L124.364 39.4654C124.456 38.9902 124.667 38.6638 125.093 38.5783C124.74 38.3597 124.645 37.9858 124.737 37.5105L124.765 37.3648C124.904 36.6424 125.365 36.2812 126.085 36.4174C126.805 36.5569 127.101 37.0638 126.966 37.7862ZM125.276 37.4789L125.232 37.707C125.147 38.1632 125.327 38.404 125.693 38.4737C126.059 38.5434 126.318 38.385 126.404 37.9319L126.448 37.7038C126.539 37.2222 126.363 36.9592 125.993 36.8895C125.63 36.8167 125.368 36.9941 125.276 37.4789ZM124.891 39.5035L124.816 39.8995C124.724 40.3811 124.894 40.6504 125.267 40.7201C125.64 40.793 125.889 40.6029 125.99 40.1245L126.066 39.7284C126.151 39.2722 125.993 39.0155 125.608 38.9395C125.22 38.8666 124.977 39.0504 124.891 39.5035Z"
            fill="#263238"/>
        <path d="M110.144 50.2221L126.265 53.3081"
            stroke="#263238"
            stroke-miterlimit="10"/>
        <path d="M109.544 53.3778L125.665 56.4638"
            stroke="#263238"
            stroke-miterlimit="10"/>
        <path d="M136.286 38.3312L140.185 37.7292"
            stroke="#263238"
            stroke-miterlimit="10"/>
        <path d="M135.686 42.8461L137.785 43.4481"
            stroke="#263238"
            stroke-miterlimit="10"/>
        <path d="M134.486 46.7591L138.385 49.468"
            stroke="#263238"
            stroke-miterlimit="10"/>
        <path d="M98.9078 45.8465C99.3308 45.8465 99.6718 45.5044 99.6718 45.0798V38.7462C99.6718 38.3216 99.3308 37.9794 98.9078 37.9794H98.8731V35.5018C98.8731 33.813 97.5092 32.4443 95.8264 32.4443H29.2101C27.5273 32.4443 26.1635 33.813 26.1635 35.5018V81.6873C26.1635 83.3761 27.5273 84.7448 29.2101 84.7448H95.8264C97.5092 84.7448 98.8731 83.3761 98.8731 81.6873V65.1167H98.9078C99.3308 65.1167 99.6718 64.7745 99.6718 64.3499V58.0163C99.6718 57.5918 99.3308 57.2496 98.9078 57.2496H98.8731V56.448H98.9078C99.3308 56.448 99.6718 56.1058 99.6718 55.6812V49.3476C99.6718 48.9231 99.3308 48.5809 98.9078 48.5809H98.8731V45.8465H98.9078Z"
            fill="#263238"/>
        <path d="M96.1579 34.4816H28.8818V82.7044H96.1579V34.4816Z"
            fill="#FF375B"
            stroke="#263238"
            stroke-miterlimit="10"/>
        <path d="M81.4455 40.6821H43.8215V71.0067H81.4455V40.6821Z"
            fill="#E3E3E3"
            stroke="#263238"
            stroke-miterlimit="10"/>
        <path d="M57.9751 62.6041V62.7943H57.5141V63.4691H58.0824V63.6624H57.3058V61.7645H58.0824V61.9578H57.5141V62.6041H57.9751Z"
            fill="#B2B2B2"/>
        <path d="M58.4613 63.6592H58.2719V61.7614H58.5402L58.9791 63.1333V61.7614H59.1653V63.6592H58.9475L58.4644 62.1257V63.6592H58.4613Z"
            fill="#B2B2B2"/>
        <path d="M59.6516 63.6592V61.9546H59.3043V61.7614H60.2104V61.9546H59.8631V63.6592H59.6516Z"
            fill="#B2B2B2"/>
        <path d="M61.0249 62.6041V62.7943H60.564V63.4691H61.1323V63.6624H60.3556V61.7645H61.1323V61.9578H60.564V62.6041H61.0249Z"
            fill="#B2B2B2"/>
        <path d="M61.7448 61.7645C62.0415 61.7645 62.1646 61.9166 62.1646 62.1986V62.3538C62.1646 62.563 62.092 62.6929 61.931 62.7436C62.1047 62.7943 62.1678 62.9368 62.1678 63.1396V63.4343C62.1678 63.5198 62.171 63.5959 62.2057 63.6624H61.991C61.9658 63.6085 61.9563 63.5578 61.9563 63.4311V63.1333C61.9563 62.9178 61.8552 62.8513 61.6816 62.8513H61.5332V63.6624H61.3217V61.7645H61.7448ZM61.6911 62.658C61.8584 62.658 61.9594 62.6041 61.9594 62.3982V62.2176C61.9594 62.0465 61.8963 61.9578 61.7416 61.9578H61.5364V62.658H61.6911Z"
            fill="#B2B2B2"/>
        <path d="M63.6391 62.2208V62.3919H63.4402V62.2113C63.4402 62.0402 63.3739 61.9388 63.2192 61.9388C63.0676 61.9388 62.9981 62.0402 62.9981 62.2113V63.2125C62.9981 63.3836 63.0676 63.485 63.2192 63.485C63.3739 63.485 63.4402 63.3804 63.4402 63.2125V62.9653H63.6391V63.1998C63.6391 63.4881 63.5033 63.6782 63.2128 63.6782C62.9224 63.6782 62.7898 63.4881 62.7898 63.1998V62.2176C62.7898 61.9293 62.9255 61.7392 63.2128 61.7392C63.5033 61.7455 63.6391 61.9325 63.6391 62.2208Z"
            fill="#B2B2B2"/>
        <path d="M63.8159 62.2208C63.8159 61.9293 63.9579 61.7424 64.2484 61.7424C64.5388 61.7424 64.6841 61.9293 64.6841 62.2208V63.203C64.6841 63.4913 64.542 63.6814 64.2484 63.6814C63.9579 63.6814 63.8159 63.4913 63.8159 63.203V62.2208ZM64.0211 63.2125C64.0211 63.3867 64.0937 63.485 64.2452 63.485C64.3999 63.485 64.4694 63.3836 64.4694 63.2125V62.2113C64.4694 62.0402 64.3999 61.9388 64.2452 61.9388C64.0937 61.9388 64.0211 62.0402 64.0211 62.2113V63.2125Z"
            fill="#B2B2B2"/>
        <path d="M65.325 61.7645C65.6186 61.7645 65.7544 61.942 65.7544 62.2366V63.1935C65.7544 63.485 65.6186 63.6624 65.325 63.6624H64.883V61.7645H65.325ZM65.3218 63.4691C65.4734 63.4691 65.546 63.3741 65.546 63.1998V62.2239C65.546 62.0497 65.4734 61.9546 65.3187 61.9546H65.0914V63.4659H65.3218V63.4691Z"
            fill="#B2B2B2"/>
        <path d="M66.6226 62.6041V62.7943H66.1616V63.4691H66.7299V63.6624H65.9533V61.7645H66.7299V61.9578H66.1616V62.6041H66.6226Z"
            fill="#B2B2B2"/>
        <path d="M78.4746 50.6974H46.7261V54.2935H78.4746V50.6974Z"
            fill="white"
            stroke="#263238"
            stroke-miterlimit="10"/>
        <path d="M78.4746 56.4005H46.7261V59.9966H78.4746V56.4005Z"
            fill="white"
            stroke="#263238"
            stroke-miterlimit="10"/>
        <path d="M67.0835 64.5115H64.0874V68.1076H67.0835V64.5115Z"
            fill="white"
            stroke="#263238"
            stroke-miterlimit="10"/>
        <path d="M63.2697 64.5115H60.2735V68.1076H63.2697V64.5115Z"
            fill="white"
            stroke="#263238"
            stroke-miterlimit="10"/>
        <path d="M59.4526 64.5115H56.4565V68.1076H59.4526V64.5115Z"
            fill="white"
            stroke="#263238"
            stroke-miterlimit="10"/>
        <path d="M55.6388 64.5115H52.7784V68.1076H55.6388V64.5115Z"
            fill="white"
            stroke="#263238"
            stroke-miterlimit="10"/>
        <path d="M71.011 64.5115H67.9044V68.1076H71.011V64.5115Z"
            fill="white"
            stroke="#263238"
            stroke-miterlimit="10"/>
        <path d="M64.1442 44.7978V44.1071C64.1442 42.9855 63.2349 42.0762 62.1205 42.0762C61.0028 42.0762 60.0967 42.9887 60.0967 44.1071V44.7978H60.0588V48.6189H64.1852V44.7978H64.1442ZM62.2436 46.8985V47.5923H61.8521V46.8985C61.6627 46.8192 61.5269 46.6323 61.5269 46.4137C61.5269 46.1254 61.7605 45.8909 62.0478 45.8909C62.3351 45.8909 62.5688 46.1254 62.5688 46.4137C62.5688 46.6323 62.433 46.8192 62.2436 46.8985ZM63.3739 44.7978H60.8639V44.1071C60.8639 43.4132 61.4259 42.8493 62.1173 42.8493C62.8087 42.8493 63.3707 43.4132 63.3707 44.1071V44.7978H63.3739Z"
            fill="#263238"/>
        <path d="M57.6815 52.9342C57.6815 53.1053 57.7478 53.2067 57.9025 53.2067C58.054 53.2067 58.1203 53.1022 58.1203 52.9342V51.4831H58.3161V52.9216C58.3161 53.2099 58.1835 53.4 57.893 53.4C57.6057 53.4 57.4731 53.2067 57.4731 52.9216V51.4831H57.6815V52.9342Z"
            fill="#B2B2B2"/>
        <path d="M59.3453 51.9394V51.99H59.1464V51.9267C59.1464 51.7556 59.0801 51.6542 58.9317 51.6542C58.7802 51.6542 58.717 51.7556 58.717 51.9235C58.717 52.3481 59.3516 52.3893 59.3516 52.9247C59.3516 53.213 59.2127 53.4 58.9254 53.4C58.6381 53.4 58.5023 53.213 58.5023 52.9247V52.817H58.6981V52.9374C58.6981 53.1085 58.7675 53.2099 58.9191 53.2099C59.0706 53.2099 59.1401 53.1085 59.1401 52.9374C59.1401 52.516 58.5087 52.4748 58.5087 51.9394C58.5087 51.6479 58.6444 51.4641 58.9285 51.4641C59.2095 51.4641 59.3453 51.651 59.3453 51.9394Z"
            fill="#B2B2B2"/>
        <path d="M60.204 52.3227V52.5128H59.7431V53.1877H60.3114V53.381H59.5347V51.4831H60.3114V51.6764H59.7431V52.3227H60.204Z"
            fill="#B2B2B2"/>
        <path d="M60.9239 51.4831C61.2207 51.4831 61.3438 51.6352 61.3438 51.9172V52.0724C61.3438 52.2815 61.2712 52.4114 61.1102 52.4621C61.2838 52.5128 61.3469 52.6554 61.3469 52.8582V53.1528C61.3469 53.2384 61.3501 53.3144 61.3848 53.381H61.1701C61.1449 53.3271 61.1354 53.2764 61.1354 53.1497V52.8518C61.1354 52.6364 61.0344 52.5699 60.8607 52.5699H60.7124V53.381H60.5008V51.4831H60.9239ZM60.8702 52.3766C61.0375 52.3766 61.1386 52.3227 61.1386 52.1168V51.9362C61.1386 51.7651 61.0754 51.6764 60.9207 51.6764H60.7155V52.3798H60.8702V52.3766Z"
            fill="#B2B2B2"/>
        <path d="M62.171 53.381H61.9815V51.4831H62.2499L62.6887 52.855V51.4831H62.875V53.381H62.6572L62.1741 51.8475V53.381H62.171Z"
            fill="#B2B2B2"/>
        <path d="M63.3044 52.9976L63.2318 53.381H63.036L63.3991 51.4831H63.7054L64.0684 53.381H63.8569L63.7843 52.9976H63.3044ZM63.3297 52.817H63.7496L63.5349 51.7207L63.3297 52.817Z"
            fill="#B2B2B2"/>
        <path d="M64.924 53.3778H64.722L64.4094 51.8697V53.381H64.2263V51.4831H64.5199L64.8293 52.9976L65.1292 51.4831H65.4229V53.381H65.224V51.8538L64.924 53.3778Z"
            fill="#B2B2B2"/>
        <path d="M66.3132 52.3227V52.5128H65.8522V53.1877H66.4205V53.381H65.6439V51.4831H66.4205V51.6764H65.8522V52.3227H66.3132Z"
            fill="#B2B2B2"/>
        <path d="M57.9719 58.0195L58.2592 58.3363L58.1203 58.4409L57.9056 58.0638L57.6941 58.4409L57.5552 58.3363L57.8393 58.0195L57.4194 57.9339L57.4699 57.7692L57.8646 57.9435L57.8172 57.5157H57.9909L57.9435 57.9435L58.3382 57.7724L58.3887 57.9371L57.9719 58.0195Z"
            fill="#B2B2B2"/>
        <path d="M59.0391 58.0195L59.3264 58.3363L59.1874 58.4409L58.9728 58.0638L58.7612 58.4409L58.6223 58.3363L58.9065 58.0195L58.4866 57.9339L58.5371 57.7692L58.9317 57.9435L58.8844 57.5157H59.058L59.0106 57.9435L59.4053 57.7724L59.4558 57.9371L59.0391 58.0195Z"
            fill="#B2B2B2"/>
        <path d="M60.103 58.0195L60.3903 58.3363L60.2514 58.4409L60.0367 58.0638L59.8252 58.4409L59.6863 58.3363L59.9704 58.0195L59.5505 57.9339L59.601 57.7692L59.9957 57.9435L59.9483 57.5157H60.122L60.0746 57.9435L60.4693 57.7724L60.5198 57.9371L60.103 58.0195Z"
            fill="#B2B2B2"/>
        <path d="M61.1701 58.0195L61.4575 58.3363L61.3185 58.4409L61.1038 58.0638L60.8923 58.4409L60.7534 58.3363L61.0375 58.0195L60.6176 57.9339L60.6682 57.7692L61.0628 57.9435L61.0154 57.5157H61.1891L61.1417 57.9435L61.5364 57.7724L61.5869 57.9371L61.1701 58.0195Z"
            fill="#B2B2B2"/>
        <path d="M62.2373 58.0195L62.5246 58.3363L62.3857 58.4409L62.171 58.0638L61.9594 58.4409L61.8205 58.3363L62.1047 58.0195L61.6848 57.9339L61.7353 57.7692L62.1299 57.9435L62.0826 57.5157H62.2562L62.2089 57.9435L62.6035 57.7724L62.654 57.9371L62.2373 58.0195Z"
            fill="#B2B2B2"/>
        <path d="M63.3044 58.0195L63.5917 58.3363L63.4528 58.4409L63.2381 58.0638L63.0266 58.4409L62.8877 58.3363L63.1718 58.0195L62.7519 57.9339L62.8024 57.7692L63.1971 57.9435L63.1497 57.5157H63.3233L63.276 57.9435L63.6706 57.7724L63.7211 57.9371L63.3044 58.0195Z"
            fill="#B2B2B2"/>
        <path d="M64.3684 58.0195L64.6557 58.3363L64.5167 58.4409L64.3021 58.0638L64.0905 58.4409L63.9516 58.3363L64.2358 58.0195L63.8159 57.9339L63.8664 57.7692L64.261 57.9435L64.2137 57.5157H64.3873L64.3399 57.9435L64.7346 57.7724L64.7851 57.9371L64.3684 58.0195Z"
            fill="#B2B2B2"/>
        <path d="M65.4355 58.0195L65.7228 58.3363L65.5839 58.4409L65.3692 58.0638L65.1577 58.4409L65.0187 58.3363L65.3029 58.0195L64.883 57.9339L64.9335 57.7692L65.3281 57.9435L65.2808 57.5157H65.4544L65.4071 57.9435L65.8017 57.7724L65.8522 57.9371L65.4355 58.0195Z"
            fill="#B2B2B2"/>
        <path d="M65.8144 144.387C76.9685 144.387 86.0108 135.86 86.0108 125.341C86.0108 114.823 76.9685 106.296 65.8144 106.296C54.6602 106.296 45.618 114.823 45.618 125.341C45.618 135.86 54.6602 144.387 65.8144 144.387Z"
            fill="#263238"/>
        <path d="M65.3913 143.395C76.5455 143.395 85.5877 134.868 85.5877 124.35C85.5877 113.831 76.5455 105.304 65.3913 105.304C54.2371 105.304 45.1949 113.831 45.1949 124.35C45.1949 134.868 54.2371 143.395 65.3913 143.395Z"
            fill="white"
            stroke="#263238"
            stroke-miterlimit="10"/>
        <path d="M65.3913 140.79C75.018 140.79 82.822 133.43 82.822 124.35C82.822 115.27 75.018 107.909 65.3913 107.909C55.7646 107.909 47.9606 115.27 47.9606 124.35C47.9606 133.43 55.7646 140.79 65.3913 140.79Z"
            fill="white"
            stroke="#263238"
            stroke-miterlimit="10"/>
        <path d="M70.2186 113.283C63.2223 113.283 57.5489 120.434 57.5489 129.258C57.5489 134.948 59.9105 139.941 63.4654 142.774C64.0527 142.825 64.6462 142.853 65.2461 142.853C72.5991 142.853 79.0145 139.073 82.4368 133.468C82.7273 132.128 82.8852 130.718 82.8852 129.261C82.8883 120.434 77.2149 113.283 70.2186 113.283Z"
            fill="#263238"/>
        <path d="M57.7036 122.053H49.4507V124.033H57.7036V122.053Z"
            fill="white"
            stroke="#263238"
            stroke-miterlimit="10"/>
        <path d="M68.299 134.802C75.2493 134.802 80.8835 129.49 80.8835 122.937C80.8835 116.383 75.2493 111.071 68.299 111.071C61.3488 111.071 55.7146 116.383 55.7146 122.937C55.7146 129.49 61.3488 134.802 68.299 134.802Z"
            fill="white"
            stroke="#263238"
            stroke-miterlimit="10"/>
        <path d="M68.299 132.844C74.1002 132.844 78.8029 128.408 78.8029 122.937C78.8029 117.465 74.1002 113.029 68.299 113.029C62.4979 113.029 57.7951 117.465 57.7951 122.937C57.7951 128.408 62.4979 132.844 68.299 132.844Z"
            fill="#263238"
            stroke="#263238"
            stroke-miterlimit="10"/>
        <path d="M63.898 113.85C63.8317 113.685 63.7527 113.523 63.6643 113.365C62.594 111.496 62.7266 109.113 63.5317 106.901"
            stroke="#263238"
            stroke-miterlimit="10"/>
        <path d="M64.0653 117.788C64.0653 117.788 64.6273 115.646 63.8979 113.85"
            stroke="white"
            stroke-miterlimit="10"/>
        <path d="M67.816 113.368C66.7457 111.499 66.8783 109.116 67.6834 106.905"
            stroke="#263238"
            stroke-miterlimit="10"/>
        <path d="M68.217 117.788C68.217 117.788 68.8863 115.237 67.816 113.365"
            stroke="white"
            stroke-miterlimit="10"/>
        <path d="M72.0971 113.618C72.0561 113.533 72.0119 113.45 71.9645 113.368C70.8942 111.499 71.0268 109.116 71.8319 106.905"
            stroke="#263238"
            stroke-miterlimit="10"/>
        <path d="M72.3686 117.788C72.3686 117.788 72.9811 115.459 72.1003 113.618"
            stroke="white"
            stroke-miterlimit="10"/>
        <path d="M112.282 105.266C112.282 105.266 111.953 105.285 111.366 105.349C110.807 103.448 109.137 97.8271 108.038 94.9217C106.703 91.3921 104.884 86.4019 103.672 84.333C102.46 82.264 102.58 81.0473 100.278 79.0988C97.9733 77.1502 95.9116 78.0025 95.9116 78.0025C95.9116 78.0025 95.5486 76.5419 93.2438 75.8132C90.9391 75.0844 87.7883 76.5419 87.7883 76.5419C87.7883 76.5419 87.3021 75.6896 85.0005 75.9336C82.6957 76.1775 81.8465 78.2465 81.8465 78.2465C81.8465 78.2465 77.117 68.754 75.2985 68.0253C73.48 67.2965 71.6614 69.1215 72.3876 70.8229C73.1137 72.5275 78.5725 82.02 79.2986 84.2094C80.0248 86.3987 81.6034 90.0519 81.6034 90.0519C81.6034 90.0519 76.3877 86.2783 74.8123 85.914C73.2369 85.5496 70.9321 85.3056 69.5966 86.7663C68.2612 88.2269 71.4152 88.5913 73.963 90.9042C76.5108 93.2171 80.6341 98.5717 82.5726 101.978C84.5143 105.387 88.6375 105.995 90.4561 107.941C91.7379 109.313 93.5564 111.223 94.5225 112.237C93.9132 112.874 93.6101 113.295 93.6101 113.295L97.6134 123.152C97.6134 123.152 98.4626 121.812 101.857 119.135C105.251 116.457 115.802 113.172 115.802 113.172L112.282 105.266Z"
            fill="#263238"
            stroke="#263238"
            stroke-miterlimit="10"/>
        <path d="M95.034 110.387C95.034 110.387 92.1231 107.345 90.3045 105.396C88.486 103.448 84.3627 102.839 82.4211 99.4335C80.4794 96.0275 76.3561 90.6697 73.8115 88.36C71.2636 86.0471 68.1128 85.6827 69.4451 84.2221C70.7806 82.7614 73.0822 83.0054 74.6607 83.3698C76.2362 83.7341 81.4518 87.5077 81.4518 87.5077C81.4518 87.5077 79.8764 83.8577 79.1471 81.6652C78.4209 79.4758 72.9622 69.9833 72.236 68.2787C71.5099 66.5741 73.3284 64.7492 75.147 65.4811C76.9655 66.2098 81.6949 75.7023 81.6949 75.7023C81.6949 75.7023 82.5442 73.6333 84.8489 73.3893C87.1537 73.1454 87.6367 73.9977 87.6367 73.9977C87.6367 73.9977 90.7907 72.537 93.0923 73.2689C95.397 73.9977 95.7601 75.4583 95.7601 75.4583C95.7601 75.4583 97.8217 74.606 100.126 76.5546C102.431 78.5031 102.308 79.7198 103.524 81.7887C104.736 83.8577 106.554 88.8479 107.89 92.3775C109.225 95.9071 111.407 103.451 111.407 103.451L95.7633 111.971L95.034 110.387Z"
            fill="white"
            stroke="#263238"
            stroke-miterlimit="10"/>
        <path d="M81.6949 75.7023L85.9382 82.0327"
            stroke="#263238"
            stroke-miterlimit="10"/>
        <path d="M87.6367 74.0008L91.5169 80.0841"
            stroke="#263238"
            stroke-miterlimit="10"/>
        <path d="M95.7633 75.4615L98.4311 80.2077"
            stroke="#263238"
            stroke-miterlimit="10"/>
        <path d="M83.324 92.951L83.8765 94.5668"
            stroke="#263238"
            stroke-miterlimit="10"/>
        <path d="M81.4518 87.5077L82.9388 91.8294"
            stroke="#263238"
            stroke-miterlimit="10"/>
        <path d="M88.2429 83.4933L89.2121 84.8304"
            stroke="#263238"
            stroke-miterlimit="10"/>
        <path d="M92.7292 82.1531L93.8216 83.6137"
            stroke="#263238"
            stroke-miterlimit="10"/>
        <path d="M98.671 81.4244L99.4003 83.7373"
            stroke="#263238"
            stroke-miterlimit="10"/>
        <path d="M93.4585 110.754C93.4585 110.754 96.2463 106.86 101.948 104.912C107.647 102.963 112.133 102.722 112.133 102.722L115.65 110.634C115.65 110.634 105.099 113.919 101.705 116.597C98.3111 119.274 97.4618 120.614 97.4618 120.614L93.4585 110.754Z"
            fill="white"
            stroke="#263238"
            stroke-miterlimit="10"/>
        <path d="M103.037 137.039C103.037 137.039 98.4279 125.478 97.2156 123.044C96.0032 120.611 97.9417 119.394 97.9417 119.394C97.9417 119.394 100.73 115.621 108.007 112.7C115.284 109.778 115.89 109.658 117.709 111.727C119.527 113.796 131.458 137.061 131.458 137.061"
            fill="white"/>
        <path d="M103.037 137.039C103.037 137.039 98.4279 125.478 97.2156 123.044C96.0032 120.611 97.9417 119.394 97.9417 119.394C97.9417 119.394 100.73 115.621 108.007 112.7C115.284 109.778 115.89 109.658 117.709 111.727C119.527 113.796 131.458 137.061 131.458 137.061"
            stroke="#263238"
            stroke-miterlimit="10"/>
        <path d="M27.3379 124.876C27.3379 124.876 28.986 121.327 32.9135 119.318C36.8379 117.31 39.3889 116.445 43.1459 112.725C46.9029 109.005 53.0941 105.685 55.6451 105.228C58.1993 104.769 59.0454 103.67 57.9467 102.412C56.848 101.154 53.8455 101.084 51.1714 101.99C48.4973 102.897 46.0284 104.005 46.0284 104.005C47.3828 101.331 48.2826 98.1091 49.6149 95.4255C50.5621 93.5213 52.1122 90.3782 53.0341 88.4582C53.634 87.2067 55.421 85.1219 54.6285 83.7531C53.8297 82.3781 51.9165 83.2937 50.9472 84.5991C49.4065 86.6776 41.8704 98.0774 41.8704 98.0774C43.3006 95.0358 44.7339 91.9941 46.1641 88.9525C48.3394 84.3298 49.3781 82.1246 49.0687 82.7804C49.7033 81.4307 50.9378 79.6279 50.1864 78.0722C49.4223 76.4944 47.2092 76.3328 46.2904 77.8346C45.2422 79.5487 37.2325 94.7601 37.2325 94.7601C37.2325 94.7601 42.2461 81.7032 42.887 80.2045C43.67 78.3732 43.2059 76.7764 42.0535 76.7827C40.377 76.7954 39.5814 78.6615 38.9247 79.9289C39.0479 79.7515 39.1678 79.5709 39.291 79.3934C37.7219 81.4941 36.6674 84.2506 35.354 86.5286C33.8196 89.1901 32.2315 91.823 30.593 94.4211C30.915 91.7311 31.9916 89.2091 33.3239 86.8772C34.129 85.4704 37.4756 82.0137 36.9042 80.3123C36.4116 78.8485 32.7399 81.5986 30.6024 84.5991C29.4375 86.234 26.3876 90.6951 25.5478 93.8318C24.708 96.9685 18.8294 107.655 17.2602 110.631C15.6911 113.609 13.8063 118.865 13.8063 118.865L27.3379 124.876Z"
            fill="#263238"
            stroke="#263238"
            stroke-miterlimit="10"/>
        <path d="M31.8148 122.005C31.8148 122.005 28.7902 118.292 22.9842 116.701C17.175 115.111 12.6823 115.146 12.6823 115.146L9.65778 123.26C9.65778 123.26 20.389 125.886 23.944 128.348C27.4989 130.81 28.4271 132.093 28.4271 132.093L31.8148 122.005Z"
            fill="#263238"
            stroke="#263238"
            stroke-miterlimit="10"/>
        <path d="M26.937 123.469C26.937 123.469 28.585 119.92 32.5125 117.912C36.4369 115.903 38.9879 115.038 42.7449 111.318C46.502 107.598 52.6932 104.278 55.2442 103.822C57.7983 103.362 58.6444 102.263 57.5457 101.005C56.447 99.7472 53.4446 99.6774 50.7704 100.584C48.0963 101.49 45.6274 102.599 45.6274 102.599C46.9818 99.9246 47.8816 96.7023 49.214 94.0187C50.1611 92.1145 51.7113 88.9715 52.6332 87.0514C53.233 85.7999 55.02 83.7151 54.2244 82.3464C53.4256 80.9713 51.5124 81.887 50.5431 83.1923C49.0024 85.2708 41.4663 96.6706 41.4663 96.6706C42.8965 93.629 44.3298 90.5873 45.76 87.5457C47.9353 82.923 48.974 80.7178 48.6646 81.3737C49.2992 80.0239 50.5337 78.2211 49.7822 76.6655C49.0182 75.0876 46.805 74.926 45.8863 76.4278C44.8381 78.1419 36.8284 93.3534 36.8284 93.3534C36.8284 93.3534 41.842 80.2964 42.4829 78.7978C43.2659 76.9665 42.8018 75.3696 41.6494 75.3759C39.9729 75.3886 39.1773 77.2548 38.5206 78.5221C38.6438 78.3447 38.7637 78.1641 38.8869 77.9867C37.3177 80.0873 36.2633 82.8438 34.9499 85.1219C33.4155 87.7833 31.8274 90.4163 30.1889 93.0143C30.5109 90.3244 31.5875 87.8023 32.9198 85.4704C33.7249 84.0636 37.0715 80.6069 36.5 78.9055C36.0075 77.4417 32.3357 80.1919 30.1983 83.1923C29.0333 84.8272 25.9835 89.2883 25.1437 92.425C24.3039 95.5617 18.4252 106.249 16.8561 109.224C15.287 112.202 13.4022 117.458 13.4022 117.458L26.937 123.469Z"
            fill="white"
            stroke="#263238"
            stroke-miterlimit="10"/>
        <path d="M36.8347 93.3565L35.3856 96.2936"
            stroke="#263238"
            stroke-miterlimit="10"/>
        <path d="M41.4694 96.6738L40.3392 98.1439"
            stroke="#263238"
            stroke-miterlimit="10"/>
        <path d="M45.6306 102.599L44.1783 104.722"
            stroke="#263238"
            stroke-miterlimit="10"/>
        <path d="M38.1228 101.205L38.006 102.469"
            stroke="#263238"
            stroke-miterlimit="10"/>
        <path d="M34.5047 98.9012L34.5079 100.121"
            stroke="#263238"
            stroke-miterlimit="10"/>
        <path d="M29.1817 96.357L29.4722 98.4323"
            stroke="#263238"
            stroke-miterlimit="10"/>
        <path d="M31.4139 120.601C31.4139 120.601 28.3893 116.888 22.5832 115.298C16.7741 113.707 12.2814 113.742 12.2814 113.742L9.25684 121.856C9.25684 121.856 19.9881 124.483 23.543 126.945C27.098 129.406 28.0262 130.69 28.0262 130.69L31.4139 120.601Z"
            fill="white"
            stroke="#263238"
            stroke-miterlimit="10"/>
        <path d="M26.6055 138.145C26.6055 138.145 27.3569 135.607 28.4177 133.104C29.4785 130.601 27.4674 129.505 27.4674 129.505C27.4674 129.505 24.4523 125.912 17.0108 123.447C9.56938 120.982 8.95689 120.899 7.26781 123.076C5.57872 125.253 0.145233 138.338 0.145233 138.338"
            fill="white"/>
        <path d="M26.6055 138.145C26.6055 138.145 27.3569 135.607 28.4177 133.104C29.4785 130.601 27.4674 129.505 27.4674 129.505C27.4674 129.505 24.4523 125.912 17.0108 123.447C9.56938 120.982 8.95689 120.899 7.26781 123.076C5.57872 125.253 0.145233 138.338 0.145233 138.338"
            stroke="#263238"
            stroke-miterlimit="10"/>
    </g>
    <defs>
        <clipPath id="clip0_1_4706">
            <rect width="142"
                height="144.387"
                fill="white"/>
        </clipPath>
    </defs>
</svg>
